<svg width="110" height="35" viewBox="0 0 150 50" fill="current" xmlns="http://www.w3.org/2000/svg">
<path d="M29.5486 23.8297C29.5621 22.7864 29.84 21.7635 30.3565 20.856C30.8729 19.9486 31.6112 19.1862 32.5025 18.6397C31.9362 17.8333 31.1892 17.1696 30.3208 16.7014C29.4523 16.2332 28.4864 15.9734 27.4996 15.9426C25.3946 15.7222 23.354 17.1986 22.2813 17.1986C21.188 17.1986 19.5365 15.9645 17.7581 16.001C16.6078 16.038 15.4867 16.3716 14.5041 16.9691C13.5215 17.5667 12.7109 18.4079 12.1512 19.4107C9.72692 23.5963 11.5352 29.7476 13.8576 33.1308C15.0195 34.7876 16.3773 36.6381 18.1541 36.5724C19.8927 36.5006 20.542 35.4668 22.6409 35.4668C24.7202 35.4668 25.3294 36.5724 27.1423 36.5307C29.008 36.5006 30.1834 34.8667 31.3045 33.1943C32.1393 32.0139 32.7817 30.7092 33.2078 29.3287C32.1239 28.8715 31.1989 28.1063 30.5482 27.1284C29.8975 26.1506 29.5499 25.0033 29.5486 23.8297ZM26.1245 13.7175C27.1418 12.4997 27.6429 10.9345 27.5216 9.35425C25.9674 9.51702 24.5318 10.2577 23.5008 11.4287C22.9967 12.0008 22.6107 12.6664 22.3647 13.3873C22.1187 14.1083 22.0176 14.8705 22.0672 15.6305C22.8445 15.6385 23.6136 15.4705 24.3164 15.1391C25.0192 14.8077 25.6374 14.3217 26.1245 13.7175ZM51.5268 32.3784H45.5935L44.1686 36.5739H41.6553L47.2754 21.0515H49.8865L55.5065 36.5739H52.9504L51.5268 32.3784ZM46.2079 30.4423H50.9111L48.5926 23.6333H48.5277L46.2079 30.4423ZM67.6436 30.9161C67.6436 34.4328 65.756 36.6923 62.9075 36.6923C62.1859 36.73 61.4683 36.5642 60.8368 36.214C60.2052 35.8639 59.6854 35.3434 59.3367 34.7123H59.2828V40.3178H56.9533V25.2568H59.2082V27.1392H59.2511C59.6158 26.5111 60.1444 25.9934 60.7807 25.6411C61.417 25.2888 62.1372 25.1151 62.8647 25.1385C65.745 25.1385 67.6436 27.4091 67.6436 30.9161ZM65.2492 30.9161C65.2492 28.6248 64.0619 27.1185 62.2502 27.1185C60.4702 27.1185 59.2731 28.6565 59.2731 30.9159C59.2731 33.1963 60.4702 34.7234 62.2502 34.7234C64.0619 34.7234 65.2492 33.2282 65.2492 30.9161ZM80.1346 30.9161C80.1346 34.4328 78.2471 36.6923 75.3985 36.6923C74.6769 36.7299 73.9593 36.5642 73.3278 36.214C72.6963 35.8638 72.1764 35.3434 71.8277 34.7123H71.7738V40.3178H69.4443V25.2568H71.6991V27.1392H71.742C72.1067 26.5111 72.6353 25.9934 73.2716 25.6411C73.908 25.2888 74.6282 25.1151 75.3556 25.1385C78.236 25.1385 80.1346 27.4091 80.1346 30.9161ZM77.7403 30.9161C77.7403 28.6248 76.5528 27.1185 74.7411 27.1185C72.9611 27.1185 71.764 28.6565 71.764 30.9159C71.764 33.1963 72.9611 34.7234 74.7411 34.7234C76.5528 34.7234 77.7403 33.2282 77.7403 30.9161ZM88.3902 32.2491C88.5628 33.7883 90.0623 34.7991 92.1115 34.7991C94.0749 34.7991 95.4876 33.7883 95.4876 32.4003C95.4876 31.1954 94.6356 30.4741 92.6184 29.9797L90.6008 29.4951C87.7426 28.8066 86.4156 27.4736 86.4156 25.3105C86.4156 22.6322 88.7562 20.7927 92.0796 20.7927C95.3688 20.7927 97.6237 22.6322 97.6996 25.3105H95.348C95.2072 23.7615 93.9231 22.8263 92.0465 22.8263C90.17 22.8263 88.8859 23.7725 88.8859 25.1493C88.8859 26.2468 89.7061 26.8926 91.7123 27.3868L93.4274 27.8068C96.6211 28.56 97.9482 29.8393 97.9482 32.1097C97.9482 35.0138 95.6284 36.8327 91.9388 36.8327C88.4867 36.8327 86.156 35.0564 86.0055 32.2489L88.3902 32.2491ZM102.976 22.5787V25.2568H105.134V27.0965H102.976V33.3354C102.976 34.3047 103.408 34.7563 104.356 34.7563C104.613 34.7519 104.868 34.7339 105.123 34.7026V36.5313C104.696 36.6107 104.263 36.6467 103.829 36.6386C101.531 36.6386 100.635 35.7781 100.635 33.5832V27.0965H98.9849V25.2568H100.635V22.5787H102.976ZM106.384 30.9161C106.384 27.3552 108.487 25.1177 111.766 25.1177C115.057 25.1177 117.15 27.3552 117.15 30.9161C117.15 34.4866 115.068 36.7143 111.766 36.7143C108.466 36.7143 106.384 34.4866 106.384 30.9161ZM114.776 30.9161C114.776 28.4735 113.654 27.0317 111.766 27.0317C109.879 27.0317 108.757 28.4843 108.757 30.9161C108.757 33.3684 109.879 34.7991 111.766 34.7991C113.654 34.7991 114.776 33.3684 114.776 30.9161ZM119.07 25.2568H121.292V27.1831H121.346C121.496 26.5815 121.85 26.0498 122.347 25.6775C122.844 25.3051 123.455 25.1148 124.076 25.1385C124.344 25.1375 124.612 25.1666 124.874 25.2251V27.398C124.535 27.2947 124.182 27.2473 123.827 27.2576C123.489 27.2439 123.152 27.3034 122.838 27.432C122.525 27.5606 122.244 27.7553 122.013 28.0026C121.782 28.25 121.608 28.5442 121.502 28.865C121.397 29.1859 121.362 29.5257 121.4 29.8613V36.5739H119.07V25.2568ZM135.614 33.2499C135.301 35.3044 133.295 36.7143 130.728 36.7143C127.426 36.7143 125.377 34.5086 125.377 30.9697C125.377 27.42 127.437 25.1177 130.63 25.1177C133.77 25.1177 135.744 27.2686 135.744 30.6999V31.4958H127.729V31.6362C127.692 32.0527 127.744 32.4723 127.882 32.8671C128.02 33.2619 128.241 33.6229 128.53 33.9261C128.818 34.2292 129.169 34.4677 129.557 34.6256C129.945 34.7835 130.363 34.8572 130.782 34.8418C131.332 34.8933 131.885 34.7661 132.357 34.4793C132.829 34.1925 133.196 33.7613 133.403 33.2499H135.614ZM127.74 29.8723H133.413C133.434 29.4978 133.377 29.1231 133.246 28.7715C133.115 28.42 132.912 28.0993 132.651 27.8296C132.39 27.5599 132.075 27.347 131.727 27.2042C131.38 27.0614 131.006 26.9919 130.63 27C130.25 26.9977 129.874 27.0704 129.523 27.2138C129.172 27.3573 128.853 27.5686 128.585 27.8357C128.316 28.1027 128.103 28.4202 127.958 28.7697C127.813 29.1193 127.739 29.494 127.74 29.8723ZM45.916 9.36762C46.4044 9.33267 46.8945 9.40624 47.3509 9.58303C47.8073 9.75983 48.2187 10.0354 48.5554 10.39C48.8921 10.7445 49.1456 11.1692 49.2978 11.6333C49.45 12.0973 49.4969 12.5893 49.4353 13.0737C49.4353 15.4565 48.1439 16.8262 45.916 16.8262H43.2143V9.3675L45.916 9.36762ZM44.3761 15.7714H45.7863C46.1352 15.7921 46.4845 15.7351 46.8085 15.6043C47.1326 15.4735 47.4234 15.2723 47.6596 15.0154C47.8959 14.7584 48.0717 14.4522 48.1743 14.1189C48.2769 13.7856 48.3037 13.4338 48.2528 13.0889C48.3001 12.7453 48.2705 12.3956 48.1664 12.0648C48.0622 11.734 47.8859 11.4302 47.6502 11.1753C47.4144 10.9204 47.1251 10.7206 46.8029 10.5903C46.4806 10.46 46.1335 10.4024 45.7863 10.4216H44.3761V15.7714ZM50.7476 14.0094C50.7121 13.6395 50.7546 13.2663 50.8722 12.9137C50.9898 12.5611 51.18 12.2369 51.4307 11.9619C51.6813 11.6869 51.9868 11.4672 52.3276 11.3169C52.6683 11.1665 53.0368 11.0889 53.4095 11.0889C53.7821 11.0889 54.1506 11.1665 54.4914 11.3169C54.8321 11.4672 55.1376 11.6869 55.3883 11.9619C55.6389 12.2369 55.8291 12.5611 55.9467 12.9137C56.0644 13.2663 56.1068 13.6395 56.0713 14.0094C56.1075 14.3797 56.0657 14.7535 55.9484 15.1067C55.8312 15.46 55.6411 15.7848 55.3904 16.0604C55.1397 16.336 54.8339 16.5563 54.4928 16.707C54.1516 16.8577 53.7826 16.9356 53.4095 16.9356C53.0363 16.9356 52.6673 16.8577 52.3262 16.707C51.985 16.5563 51.6793 16.336 51.4286 16.0604C51.1779 15.7848 50.9878 15.46 50.8705 15.1067C50.7532 14.7535 50.7114 14.3797 50.7476 14.0094ZM54.9256 14.0094C54.9256 12.7892 54.3759 12.0757 53.4113 12.0757C52.443 12.0757 51.8984 12.7892 51.8984 14.0094C51.8984 15.2392 52.4431 15.9472 53.4113 15.9472C54.3759 15.9472 54.9256 15.2344 54.9256 14.0094ZM63.1481 16.8261H61.9923L60.8258 12.6806H60.7377L59.5761 16.8261H58.4315L56.8757 11.1974H58.0054L59.0166 15.4924H59.0999L60.2604 11.1974H61.329L62.4895 15.4924H62.5776L63.5838 11.1974H64.6978L63.1481 16.8261ZM66.0063 11.1975H67.0787V12.0916H67.1619C67.3031 11.7704 67.5413 11.5012 67.8433 11.3214C68.1452 11.1417 68.4959 11.0603 68.8464 11.0887C69.121 11.0682 69.3968 11.1095 69.6533 11.2096C69.9097 11.3097 70.1403 11.4661 70.3279 11.6671C70.5156 11.8682 70.6554 12.1088 70.7372 12.371C70.8189 12.6333 70.8404 12.9106 70.8001 13.1822V16.826H69.6861V13.4612C69.6861 12.5567 69.2919 12.1069 68.4681 12.1069C68.2816 12.0982 68.0955 12.1299 67.9224 12.1997C67.7494 12.2695 67.5935 12.3757 67.4655 12.5112C67.3375 12.6467 67.2404 12.8082 67.1808 12.9846C67.1212 13.161 67.1006 13.3481 67.1203 13.5332V16.8261H66.0063V11.1975ZM72.5751 9.00013H73.6889V16.8261H72.5751V9.00013ZM75.2375 14.0094C75.202 13.6394 75.2444 13.2662 75.3621 12.9135C75.4797 12.5609 75.67 12.2367 75.9206 11.9616C76.1713 11.6866 76.4768 11.4669 76.8176 11.3165C77.1585 11.1662 77.527 11.0885 77.8997 11.0885C78.2724 11.0885 78.641 11.1662 78.9818 11.3165C79.3226 11.4669 79.6281 11.6866 79.8788 11.9616C80.1294 12.2367 80.3197 12.5609 80.4373 12.9135C80.555 13.2662 80.5974 13.6394 80.5619 14.0094C80.598 14.3796 80.556 14.7533 80.4386 15.1065C80.3212 15.4596 80.1311 15.7843 79.8804 16.0598C79.6296 16.3353 79.3239 16.5554 78.9828 16.7061C78.6417 16.8567 78.2728 16.9345 77.8997 16.9345C77.5266 16.9345 77.1577 16.8567 76.8166 16.7061C76.4755 16.5554 76.1698 16.3353 75.919 16.0598C75.6683 15.7843 75.4782 15.4596 75.3608 15.1065C75.2434 14.7533 75.2014 14.3796 75.2375 14.0094ZM79.4154 14.0094C79.4154 12.7892 78.8658 12.0757 77.9012 12.0757C76.9329 12.0757 76.3882 12.7892 76.3882 14.0094C76.3882 15.2392 76.933 15.9472 77.9012 15.9472C78.8658 15.9472 79.4154 15.2344 79.4154 14.0094ZM81.7346 15.2344C81.7346 14.2211 82.491 13.637 83.8339 13.554L85.3628 13.4661V12.9802C85.3628 12.3857 84.9687 12.0501 84.2073 12.0501C83.5855 12.0501 83.1545 12.2777 83.0309 12.6757H81.9524C82.0662 11.7089 82.9783 11.0889 84.2587 11.0889C85.6738 11.0889 86.4719 11.7914 86.4719 12.9802V16.8261H85.3996V16.0351H85.3114C85.1325 16.3188 84.8813 16.5501 84.5835 16.7054C84.2856 16.8607 83.9518 16.9343 83.6161 16.9189C83.3791 16.9434 83.1396 16.9182 82.913 16.8448C82.6865 16.7715 82.4778 16.6516 82.3005 16.4929C82.1233 16.3342 81.9813 16.1402 81.8838 15.9234C81.7864 15.7066 81.7355 15.4719 81.7346 15.2344ZM85.3628 14.7534V14.2827L83.9845 14.3706C83.2072 14.4225 82.8546 14.6862 82.8546 15.1824C82.8546 15.689 83.2953 15.9839 83.9012 15.9839C84.0788 16.0018 84.2582 15.9839 84.4286 15.9313C84.5991 15.8787 84.7573 15.7924 84.8936 15.6776C85.03 15.5628 85.1418 15.4218 85.2224 15.263C85.303 15.1042 85.3508 14.9309 85.3628 14.7534ZM87.936 14.0094C87.936 12.2307 88.8528 11.1041 90.2789 11.1041C90.6317 11.0879 90.9818 11.1722 91.2883 11.347C91.5949 11.5219 91.8451 11.7801 92.0099 12.0916H92.0931V9H93.207V16.826H92.1396V15.9366H92.0515C91.874 16.246 91.6151 16.501 91.3026 16.6741C90.9902 16.8473 90.6363 16.9318 90.2791 16.9187C88.8431 16.9187 87.936 15.7921 87.936 14.0094ZM89.0867 14.0094C89.0867 15.2031 89.6511 15.9216 90.5947 15.9216C91.5336 15.9216 92.114 15.1929 92.114 14.0141C92.114 12.8411 91.5276 12.102 90.5947 12.102C89.6571 12.102 89.0867 12.8252 89.0867 14.0094ZM97.8159 14.0094C97.7804 13.6395 97.8228 13.2663 97.9405 12.9137C98.0581 12.5611 98.2483 12.2369 98.4989 11.9619C98.7496 11.6869 99.055 11.4672 99.3958 11.3169C99.7366 11.1665 100.105 11.0889 100.478 11.0889C100.85 11.0889 101.219 11.1665 101.56 11.3169C101.9 11.4672 102.206 11.6869 102.457 11.9619C102.707 12.2369 102.897 12.5611 103.015 12.9137C103.133 13.2663 103.175 13.6395 103.14 14.0094C103.176 14.3797 103.134 14.7535 103.017 15.1067C102.899 15.46 102.709 15.7848 102.459 16.0604C102.208 16.336 101.902 16.5563 101.561 16.707C101.22 16.8577 100.851 16.9356 100.478 16.9356C100.105 16.9356 99.7356 16.8577 99.3944 16.707C99.0533 16.5563 98.7475 16.336 98.4968 16.0604C98.2461 15.7848 98.056 15.46 97.9388 15.1067C97.8215 14.7535 97.7796 14.3797 97.8159 14.0094ZM101.994 14.0094C101.994 12.7892 101.444 12.0757 100.48 12.0757C99.5113 12.0757 98.9666 12.7892 98.9666 14.0094C98.9666 15.2392 99.5114 15.9472 100.48 15.9472C101.444 15.9472 101.994 15.2344 101.994 14.0094ZM104.634 11.1975H105.707V12.0916H105.79C105.931 11.7704 106.169 11.5012 106.471 11.3214C106.773 11.1417 107.124 11.0603 107.474 11.0887C107.749 11.0682 108.025 11.1095 108.281 11.2096C108.538 11.3097 108.768 11.4661 108.956 11.6671C109.143 11.8682 109.283 12.1088 109.365 12.371C109.447 12.6333 109.468 12.9106 109.428 13.1822V16.826H108.314V13.4612C108.314 12.5567 107.92 12.1069 107.096 12.1069C106.91 12.0982 106.723 12.1299 106.55 12.1997C106.377 12.2695 106.221 12.3757 106.093 12.5112C105.965 12.6467 105.868 12.8082 105.809 12.9846C105.749 13.161 105.728 13.3481 105.748 13.5332V16.8261H104.634L104.634 11.1975ZM115.722 9.79612V11.2231H116.945V12.1587H115.722V15.053C115.722 15.6426 115.966 15.9009 116.521 15.9009C116.663 15.9004 116.804 15.8918 116.945 15.8751V16.8005C116.745 16.8362 116.543 16.8551 116.339 16.8572C115.101 16.8572 114.607 16.4226 114.607 15.3375V12.1587H113.711V11.223H114.607V9.79625L115.722 9.79612ZM118.467 9.00013H119.571V12.102H119.659C119.807 11.7778 120.052 11.5071 120.36 11.3266C120.668 11.1462 121.024 11.0648 121.38 11.0936C121.654 11.0788 121.927 11.1243 122.18 11.2268C122.434 11.3294 122.662 11.4865 122.847 11.6869C123.033 11.8874 123.172 12.1262 123.254 12.3864C123.337 12.6466 123.361 12.9217 123.324 13.1921V16.8261H122.209V13.4661C122.209 12.567 121.789 12.1117 121.002 12.1117C120.811 12.0961 120.618 12.1223 120.438 12.1887C120.258 12.255 120.094 12.3598 119.959 12.4957C119.823 12.6316 119.719 12.7954 119.654 12.9755C119.589 13.1557 119.564 13.3479 119.581 13.5387V16.8261H118.467V9.00013ZM129.82 15.3062C129.668 15.8207 129.34 16.2657 128.893 16.5634C128.446 16.8611 127.908 16.9925 127.374 16.9347C127.002 16.9445 126.632 16.8735 126.291 16.7266C125.949 16.5797 125.644 16.3604 125.396 16.084C125.147 15.8076 124.963 15.4806 124.854 15.1258C124.745 14.7711 124.715 14.397 124.766 14.0295C124.717 13.6609 124.747 13.2859 124.856 12.9301C124.964 12.5742 125.148 12.2458 125.395 11.9669C125.641 11.688 125.945 11.4653 126.286 11.3138C126.627 11.1623 126.996 11.0856 127.369 11.0887C128.939 11.0887 129.887 12.1587 129.887 13.9262V14.3139H125.901V14.3761C125.884 14.5827 125.91 14.7906 125.978 14.9865C126.045 15.1824 126.153 15.3621 126.295 15.5139C126.437 15.6657 126.608 15.7864 126.799 15.8681C126.99 15.9499 127.196 15.9909 127.404 15.9886C127.671 16.0205 127.941 15.9727 128.18 15.8512C128.419 15.7297 128.616 15.54 128.747 15.3062H129.82ZM125.901 13.4924H128.752C128.766 13.3035 128.74 13.1137 128.676 12.9353C128.613 12.7569 128.512 12.5938 128.381 12.4565C128.25 12.3192 128.092 12.2107 127.917 12.138C127.741 12.0652 127.553 12.0299 127.363 12.0342C127.17 12.0318 126.979 12.0679 126.8 12.1403C126.622 12.2127 126.46 12.3201 126.324 12.456C126.187 12.5919 126.08 12.7536 126.007 12.9316C125.935 13.1096 125.899 13.3002 125.901 13.4924Z"/>
<path d="M144.444 0H5.55556C2.50004 0 0 2.8125 0 6.25003V43.75C0 47.1875 2.49999 50 5.55556 50H144.444C147.5 50 150 47.1875 150 43.75V6.25003C150 2.8125 147.5 0 144.444 0H144.444ZM144.444 0.999968C147.018 0.999968 149.111 3.35551 149.111 6.25003V43.75C149.111 46.645 147.018 49.0005 144.444 49.0005H5.55556C2.9827 49.0005 0.888898 46.645 0.888898 43.75V6.25003C0.888898 3.35551 2.98265 1.00002 5.55556 1.00002H144.444"/>
</svg>
