<svg width="696" height="631" viewBox="0 0 696 631" fill="none" xmlns="http://www.w3.org/2000/svg">
<rect width="696" height="631" rx="100" fill="white"/>
<path d="M196.745 238.831L239.419 242.465L220.792 168.885C219.12 162.255 215.255 156.116 209.609 151.121C203.963 146.127 196.746 142.465 188.729 140.524L103.057 119.694C86.052 115.573 68.9082 125.838 68.9082 140.224C68.9082 153.749 85.5424 163.19 101.25 158.582L113.158 156.409L161.16 167.911C165.828 169.034 170.05 171.126 173.408 173.979C176.766 176.831 179.14 180.345 180.297 184.17L196.745 238.831ZM240.995 395.02L270.695 497.109L306.79 486.806L284.55 395.02H240.995Z" fill="black" fill-opacity="0.9"/>
<path d="M261.984 467.138H553.521V498.346H268.564L261.984 467.138Z" fill="#65878D"/>
<path d="M631.78 265.131L597.446 400.451C594.806 410.942 583.407 418.434 570.201 418.434H252.718C250.621 418.436 248.586 417.862 246.946 416.807C245.305 415.753 244.154 414.279 243.683 412.628L187.988 217.776C186.552 212.793 191.556 208.185 197.858 208.635L607.038 238.231C610.938 238.513 614.719 239.456 618.136 241.002C621.552 242.547 624.525 244.659 626.862 247.199C629.199 249.739 630.844 252.649 631.692 255.74C632.539 258.83 632.569 262.031 631.78 265.131ZM567.143 269.214L547.405 267.791C545.482 267.651 543.543 267.837 541.713 268.336C539.882 268.835 538.201 269.637 536.775 270.691C535.351 271.745 534.212 273.028 533.434 274.457C532.655 275.886 532.253 277.431 532.254 278.992V297.05C532.254 303.269 538.463 308.29 546.154 308.29H566.912C573.492 308.29 579.19 304.544 580.534 299.298L583.592 287.16C584.133 285.094 584.125 282.959 583.569 280.896C583.013 278.833 581.92 276.889 580.366 275.193C578.81 273.496 576.828 272.085 574.549 271.055C572.269 270.025 569.745 269.397 567.143 269.214ZM390.099 338.224H363.782C356.09 338.224 349.881 343.244 349.881 349.463V373.477C349.881 379.696 356.09 384.717 363.782 384.717H390.099C397.791 384.717 403.999 379.696 403.999 373.477V349.463C403.999 343.244 397.791 338.224 390.099 338.224ZM363.782 308.252H390.099C397.791 308.252 403.999 303.232 403.999 297.013V267.679C403.999 261.872 398.486 257.001 391.351 256.477L365.033 254.566C363.109 254.426 361.17 254.611 359.34 255.111C357.509 255.61 355.829 256.412 354.403 257.467C352.978 258.52 351.839 259.802 351.06 261.232C350.282 262.662 349.88 264.206 349.881 265.768V297.013C349.881 303.232 356.09 308.252 363.782 308.252ZM441.067 349.463V373.477C441.067 379.696 447.276 384.717 454.967 384.717H481.286C488.977 384.717 495.186 379.696 495.186 373.477V349.463C495.186 343.244 488.977 338.224 481.286 338.224H454.967C447.276 338.224 441.067 343.244 441.067 349.463ZM454.967 308.252H481.286C488.977 308.252 495.186 303.232 495.186 297.013V274.272C495.186 268.465 489.672 263.595 482.537 263.07L456.218 261.159C454.295 261.02 452.356 261.206 450.527 261.705C448.696 262.204 447.015 263.007 445.59 264.06C444.164 265.114 443.026 266.397 442.247 267.826C441.468 269.255 441.067 270.8 441.067 272.361V297.013C441.067 303.232 447.276 308.252 454.967 308.252ZM243.033 260.523L254.2 299.523C254.907 301.995 256.63 304.201 259.088 305.779C261.545 307.358 264.592 308.217 267.73 308.215H298.913C306.605 308.215 312.814 303.195 312.814 296.975V261.084C312.814 255.278 307.299 250.407 300.164 249.883L257.861 246.811C248.408 246.136 240.902 253.104 243.033 260.523ZM293.26 384.717H303.5C308.597 384.717 312.767 381.345 312.767 377.224V349.463C312.767 343.244 306.558 338.224 298.867 338.224H282.696C273.754 338.224 267.128 344.967 269.167 352.01L275.19 373.141C276.15 376.433 278.456 379.368 281.735 381.469C285.015 383.57 289.076 384.714 293.26 384.717ZM567.839 349.351C569.322 343.581 563.854 338.186 556.579 338.186H546.154C538.463 338.186 532.254 343.207 532.254 349.426V375.389C532.254 376.609 532.551 377.817 533.128 378.944C533.706 380.071 534.552 381.095 535.62 381.958C536.687 382.821 537.953 383.505 539.347 383.973C540.742 384.439 542.235 384.679 543.744 384.679C552.548 384.679 560.147 379.659 561.908 372.691L567.839 349.351Z" fill="url(#paint0_linear_380_27)"/>
<path d="M290.804 524.571C262.655 524.571 239.836 506.12 239.836 483.36C239.836 460.6 262.655 442.149 290.804 442.149C318.953 442.149 341.772 460.6 341.772 483.36C341.772 506.12 318.953 524.571 290.804 524.571Z" fill="#2F2F2F"/>
<path d="M290.804 502.579C277.676 502.579 267.034 493.975 267.034 483.36C267.034 472.746 277.676 464.141 290.804 464.141C303.931 464.141 314.573 472.746 314.573 483.36C314.573 493.975 303.931 502.579 290.804 502.579Z" fill="#65878D"/>
<path d="M535.636 524.571C507.487 524.571 484.667 506.12 484.667 483.36C484.667 460.6 507.487 442.149 535.636 442.149C563.784 442.149 586.604 460.6 586.604 483.36C586.604 506.12 563.784 524.571 535.636 524.571Z" fill="#2F2F2F"/>
<path d="M535.636 502.579C522.509 502.579 511.867 493.975 511.867 483.36C511.867 472.746 522.509 464.141 535.636 464.141C548.764 464.141 559.406 472.746 559.406 483.36C559.406 493.975 548.764 502.579 535.636 502.579Z" fill="#65878D"/>
<path d="M91.3339 173.643C72.3718 173.643 57 161.214 57 145.882C57 130.55 72.3718 118.121 91.3339 118.121C110.296 118.121 125.668 130.55 125.668 145.882C125.668 161.214 110.296 173.643 91.3339 173.643Z" fill="#DC3545"/>
<path d="M280.522 191.567C275.276 191.359 270.605 190.34 266.507 188.51C262.412 186.638 258.966 184.145 256.17 181.032C253.416 177.921 251.347 174.357 249.963 170.341C248.581 166.283 247.979 162.005 248.157 157.509L248.256 155.011C248.459 149.89 249.373 145.235 250.998 141.046C252.624 136.857 254.851 133.255 257.681 130.239C260.553 127.226 263.978 124.964 267.958 123.453C271.939 121.901 276.386 121.223 281.299 121.417C286.087 121.607 290.302 122.566 293.945 124.295C297.588 126.024 300.6 128.395 302.983 131.408C305.407 134.423 307.184 137.996 308.313 142.127C309.444 146.217 309.911 150.739 309.715 155.693L309.418 163.188L255.71 161.061L256.185 149.07L292.219 150.497L292.274 149.123C292.372 146.625 292.003 144.379 291.164 142.386C290.369 140.353 289.099 138.718 287.355 137.482C285.611 136.245 283.344 135.572 280.555 135.461C278.182 135.367 276.121 135.807 274.373 136.78C272.625 137.753 271.172 139.155 270.016 140.986C268.901 142.818 268.022 144.993 267.38 147.512C266.782 149.99 266.423 152.728 266.304 155.726L266.205 158.224C266.098 160.93 266.374 163.443 267.033 165.762C267.733 168.083 268.758 170.105 270.108 171.827C271.499 173.55 273.197 174.91 275.2 175.906C277.246 176.905 279.58 177.456 282.203 177.56C285.45 177.688 288.494 177.183 291.332 176.045C294.215 174.866 296.727 173.027 298.869 170.526L307.237 180.365C305.74 182.349 303.727 184.229 301.196 186.005C298.707 187.783 295.732 189.208 292.27 190.281C288.81 191.311 284.894 191.74 280.522 191.567ZM367.946 169.947C368.011 168.323 367.819 166.855 367.37 165.545C366.965 164.195 366.138 162.953 364.891 161.819C363.644 160.644 361.877 159.469 359.588 158.294C357.3 157.119 354.326 155.875 350.667 154.563C346.597 153.067 342.743 151.414 339.104 149.602C335.506 147.791 332.335 145.726 329.591 143.408C326.891 141.049 324.787 138.36 323.281 135.339C321.816 132.321 321.161 128.854 321.316 124.941C321.466 121.152 322.434 117.75 324.222 114.735C326.011 111.679 328.448 109.106 331.533 107.019C334.62 104.889 338.227 103.301 342.355 102.256C346.524 101.211 351.066 100.787 355.978 100.981C362.682 101.247 368.483 102.686 373.384 105.298C378.284 107.911 382.025 111.374 384.606 115.688C387.229 120.004 388.434 124.868 388.219 130.28L369.609 129.543C369.714 126.878 369.245 124.525 368.2 122.482C367.198 120.399 365.596 118.73 363.394 117.475C361.234 116.222 358.467 115.529 355.095 115.395C351.847 115.266 349.121 115.659 346.917 116.572C344.714 117.444 343.038 118.691 341.89 120.314C340.743 121.895 340.129 123.705 340.049 125.745C339.988 127.286 340.307 128.695 341.007 129.974C341.749 131.254 342.868 132.466 344.366 133.61C345.863 134.753 347.717 135.848 349.928 136.895C352.138 137.941 354.703 138.981 357.623 140.014C362.518 141.709 366.802 143.568 370.475 145.59C374.189 147.613 377.27 149.841 379.717 152.273C382.165 154.705 383.975 157.425 385.149 160.432C386.322 163.439 386.835 166.816 386.687 170.564C386.53 174.519 385.62 178.027 383.955 181.089C382.291 184.15 379.959 186.706 376.959 188.756C373.959 190.805 370.417 192.312 366.334 193.276C362.251 194.24 357.712 194.624 352.716 194.426C348.219 194.248 343.808 193.489 339.483 192.15C335.159 190.77 331.255 188.801 327.77 186.245C324.327 183.69 321.618 180.497 319.643 176.666C317.668 172.834 316.782 168.358 316.984 163.237L335.782 163.981C335.67 166.812 336.012 169.224 336.809 171.216C337.606 173.207 338.772 174.838 340.306 176.108C341.882 177.379 343.762 178.33 345.947 178.958C348.174 179.589 350.62 179.956 353.285 180.062C356.532 180.191 359.215 179.838 361.333 179.005C363.492 178.173 365.104 176.965 366.167 175.381C367.273 173.798 367.866 171.987 367.946 169.947ZM418.703 99.7122L414.904 195.637L396.918 194.925L400.717 99L418.703 99.7122ZM413.775 159.376L408.842 159.181C409.07 154.478 409.866 150.173 411.23 146.265C412.595 142.316 414.46 138.929 416.824 136.104C419.189 133.237 421.965 131.053 425.152 129.553C428.38 128.055 431.91 127.382 435.74 127.533C439.071 127.665 442.07 128.263 444.739 129.328C447.45 130.353 449.743 131.945 451.618 134.104C453.535 136.223 454.969 138.97 455.92 142.343C456.871 145.717 457.252 149.777 457.064 154.523L455.372 197.24L437.261 196.523L438.958 153.681C439.077 150.683 438.733 148.314 437.926 146.572C437.163 144.79 435.983 143.514 434.387 142.742C432.835 141.93 430.893 141.477 428.561 141.385C425.98 141.283 423.755 141.674 421.885 142.559C420.057 143.446 418.567 144.721 417.417 146.385C416.269 148.008 415.4 149.933 414.812 152.162C414.223 154.39 413.878 156.795 413.775 159.376ZM467.487 164.568L467.539 163.257C467.735 158.302 468.624 153.772 470.204 149.664C471.786 145.515 473.991 141.954 476.819 138.98C479.648 136.006 483.073 133.744 487.096 132.194C491.12 130.602 495.693 129.908 500.814 130.11C505.935 130.313 510.46 131.368 514.387 133.275C518.316 135.14 521.573 137.667 524.157 140.855C526.783 144.045 528.721 147.77 529.97 152.031C531.22 156.251 531.748 160.837 531.551 165.792L531.499 167.104C531.305 172.017 530.417 176.548 528.834 180.697C527.254 184.804 525.028 188.364 522.157 191.378C519.328 194.352 515.903 196.614 511.88 198.164C507.857 199.715 503.285 200.388 498.164 200.186C493.043 199.983 488.518 198.949 484.589 197.084C480.701 195.22 477.444 192.693 474.819 189.504C472.236 186.274 470.319 182.549 469.069 178.33C467.82 174.069 467.293 169.482 467.487 164.568ZM485.525 163.969L485.473 165.281C485.361 168.112 485.506 170.766 485.908 173.242C486.311 175.718 487.016 177.915 488.024 179.831C489.076 181.707 490.476 183.201 492.225 184.313C493.974 185.425 496.139 186.032 498.721 186.134C501.219 186.233 503.383 185.798 505.215 184.828C507.046 183.858 508.54 182.478 509.695 180.689C510.851 178.859 511.728 176.725 512.325 174.288C512.964 171.853 513.339 169.22 513.451 166.389L513.503 165.077C513.612 162.329 513.443 159.737 512.998 157.301C512.595 154.825 511.869 152.628 510.819 150.71C509.813 148.752 508.436 147.196 506.688 146.043C504.941 144.889 502.797 144.262 500.258 144.162C497.718 144.061 495.532 144.517 493.699 145.528C491.907 146.541 490.411 147.983 489.211 149.854C488.055 151.685 487.178 153.818 486.581 156.255C485.986 158.65 485.634 161.221 485.525 163.969ZM561.39 146.77L558.2 227.333L540.214 226.62L543.918 133.068L560.593 133.729L561.39 146.77ZM603.375 168.511L603.323 169.823C603.129 174.736 602.365 179.272 601.033 183.431C599.742 187.591 597.932 191.189 595.601 194.224C593.273 197.218 590.429 199.524 587.071 201.142C583.756 202.72 579.975 203.426 575.728 203.257C571.607 203.094 568.059 202.12 565.086 200.334C562.112 198.548 559.644 196.115 557.681 193.035C555.762 189.915 554.256 186.332 553.166 182.286C552.075 178.239 551.287 173.913 550.802 169.307L550.938 165.872C551.799 160.985 552.935 156.527 554.345 152.496C555.758 148.424 557.543 144.929 559.702 142.012C561.904 139.055 564.537 136.804 567.6 135.257C570.706 133.712 574.298 133.02 578.378 133.182C582.667 133.352 586.402 134.313 589.586 136.065C592.81 137.819 595.466 140.26 597.552 143.386C599.68 146.514 601.223 150.203 602.18 154.453C603.18 158.704 603.578 163.39 603.375 168.511ZM585.275 169.108L585.327 167.797C585.44 164.924 585.295 162.27 584.891 159.835C584.531 157.361 583.866 155.187 582.898 153.314C581.971 151.443 580.695 149.974 579.069 148.909C577.487 147.804 575.53 147.205 573.198 147.113C570.742 147.016 568.624 147.328 566.844 148.05C565.105 148.773 563.665 149.863 562.523 151.319C561.381 152.775 560.499 154.533 559.875 156.593C559.251 158.653 558.825 160.992 558.596 163.61L558.253 172.292C558.339 175.381 558.812 178.172 559.672 180.667C560.534 183.119 561.936 185.093 563.879 186.588C565.821 188.083 568.416 188.894 571.664 189.023C574.037 189.117 576.056 188.676 577.721 187.699C579.387 186.681 580.757 185.255 581.831 183.421C582.946 181.588 583.76 179.452 584.274 177.012C584.829 174.574 585.163 171.939 585.275 169.108Z" fill="#DC3545"/>
<defs>
<linearGradient id="paint0_linear_380_27" x1="225" y1="248" x2="601" y2="456" gradientUnits="userSpaceOnUse">
<stop stop-color="#5D05B5"/>
<stop offset="0.58946" stop-color="#9E1E7C"/>
<stop offset="1" stop-color="#DC3545"/>
</linearGradient>
</defs>
</svg>
