<svg width="696" height="631" viewBox="0 0 696 631" fill="none" xmlns="http://www.w3.org/2000/svg">
<rect x="1" y="1" width="694" height="629" rx="99" fill="white" stroke="#616161" stroke-width="2"/>
<path d="M219.823 169.13L219.822 169.129C218.205 162.714 214.458 156.746 208.946 151.87C203.434 146.994 196.368 143.402 188.494 141.496L188.493 141.496L102.821 120.666L219.823 169.13ZM219.823 169.13L238.105 241.349L197.507 237.892L181.255 183.881L181.254 183.88C180.036 179.853 177.545 176.18 174.055 173.216C170.567 170.253 166.2 168.095 161.394 166.938L161.393 166.938L113.391 155.436L113.186 155.387L112.978 155.425L101.07 157.598L101.019 157.608M219.823 169.13L101.019 157.608M101.019 157.608L100.968 157.622M101.019 157.608L100.968 157.622M100.968 157.622C93.3786 159.849 85.5725 158.677 79.6823 155.333C73.7896 151.989 69.9082 146.54 69.9082 140.224C69.9082 133.463 73.9341 127.591 80.1204 123.876M100.968 157.622L80.1204 123.876M80.1204 123.876C86.3057 120.163 94.5729 118.667 102.821 120.666L80.1204 123.876ZM271.377 495.874L242.327 396.02H283.763L305.592 486.108L271.377 495.874Z" fill="black" fill-opacity="0.9" stroke="#616161" stroke-width="2"/>
<path d="M269.375 497.346L263.217 468.138H552.521V497.346H269.375Z" fill="#65878D" stroke="#616161" stroke-width="2"/>
<path d="M536.18 269.887L536.181 269.887C537.713 268.754 539.508 267.9 541.45 267.371C543.391 266.842 545.443 266.645 547.478 266.793L567.213 268.216C569.928 268.407 572.569 269.063 574.961 270.143L574.549 271.055L574.961 270.143C577.353 271.224 579.448 272.712 581.103 274.517L581.103 274.517C582.757 276.322 583.934 278.406 584.535 280.635C585.135 282.865 585.145 285.175 584.561 287.408C584.56 287.41 584.56 287.411 584.559 287.413L581.504 299.542L581.503 299.546C580.015 305.354 573.812 309.29 566.912 309.29H546.154C538.12 309.29 531.254 304.009 531.254 297.05V278.992V278.992H532.254C532.253 277.431 532.655 275.886 533.434 274.457L536.18 269.887ZM536.18 269.887C534.65 271.019 533.41 272.41 532.556 273.978L536.18 269.887ZM391.423 255.479L391.424 255.479C398.896 256.028 404.999 261.18 404.999 267.679V297.013C404.999 303.972 398.134 309.252 390.099 309.252H363.782C355.747 309.252 348.881 303.972 348.881 297.013V265.768V265.768H349.881L391.423 255.479ZM391.423 255.479L365.106 253.568M391.423 255.479L365.106 253.568M300.236 248.885L300.237 248.885C307.708 249.434 313.814 254.586 313.814 261.084V296.975C313.814 303.935 306.948 309.215 298.913 309.215H267.731H267.73V308.215C264.592 308.217 261.545 307.358 259.088 305.779L300.236 248.885ZM300.236 248.885L257.933 245.813L257.932 245.813C252.948 245.457 248.432 247.112 245.424 249.898C242.407 252.69 240.884 256.662 242.072 260.799L253.239 299.798L300.236 248.885ZM532.238 379.4L532.238 379.399C531.591 378.137 531.254 376.773 531.254 375.389V349.426C531.254 342.466 538.12 337.186 546.154 337.186H556.579C560.458 337.186 563.904 338.624 566.197 340.894C568.498 343.172 569.651 346.316 568.808 349.6L562.878 372.936L532.238 379.4ZM532.238 379.4C532.885 380.661 533.824 381.792 534.991 382.735M532.238 379.4L539.03 384.921M539.03 384.921L539.029 384.921C537.53 384.418 536.157 383.678 534.991 382.735M539.03 384.921C540.53 385.422 542.13 385.679 543.744 385.679M539.03 384.921L543.744 385.679M534.991 382.735L535.62 381.958L534.992 382.736C534.991 382.735 534.991 382.735 534.991 382.735ZM365.106 253.568C365.106 253.568 365.105 253.568 365.105 253.568M365.106 253.568L365.105 253.568M365.105 253.568C363.071 253.42 361.018 253.616 359.077 254.146M365.105 253.568L359.077 254.146M359.077 254.146C357.135 254.675 355.341 255.529 353.809 256.662L359.077 254.146ZM543.744 385.679C552.867 385.679 560.973 380.47 562.877 372.937L543.744 385.679ZM630.811 264.884L630.811 264.885L596.477 400.205L596.476 400.207C593.979 410.13 583.089 417.434 570.201 417.434H252.718H252.717C250.797 417.436 248.953 416.909 247.487 415.966L247.486 415.965C246.02 415.024 245.04 413.738 244.645 412.353L244.645 412.353L188.95 217.501L188.949 217.499C188.353 215.432 189.068 213.41 190.7 211.902C192.341 210.385 194.89 209.425 197.786 209.632C197.786 209.632 197.787 209.632 197.787 209.632L606.966 239.228C610.754 239.502 614.419 240.418 617.724 241.913L618.136 241.002L617.724 241.913C621.028 243.407 623.888 245.443 626.126 247.876C628.364 250.308 629.925 253.079 630.728 256.004C631.529 258.927 631.557 261.952 630.811 264.884ZM482.61 262.072L482.609 262.072L450.527 261.705L450.264 260.74C450.264 260.74 450.264 260.74 450.264 260.74C448.321 261.269 446.527 262.124 444.996 263.255L445.59 264.06L444.996 263.256C443.463 264.388 442.224 265.779 441.369 267.347C440.513 268.917 440.067 270.626 440.067 272.361V297.013C440.067 303.972 446.933 309.252 454.967 309.252H481.286C489.32 309.252 496.186 303.972 496.186 297.013V274.272C496.186 267.773 490.081 262.622 482.61 262.072ZM293.259 385.717H293.26H303.5C308.94 385.717 313.767 382.085 313.767 377.224V349.463C313.767 342.503 306.901 337.224 298.867 337.224H282.696C277.979 337.224 273.823 339.002 271.1 341.775C268.37 344.556 267.072 348.365 268.206 352.286C268.206 352.286 268.206 352.287 268.206 352.288L274.228 373.415L274.23 373.421C275.267 376.976 277.742 380.098 281.196 382.311L281.196 382.311C284.649 384.523 288.899 385.714 293.259 385.717ZM390.099 337.224H363.782C355.747 337.224 348.881 342.503 348.881 349.463V373.477C348.881 380.436 355.747 385.717 363.782 385.717H390.099C398.135 385.717 404.999 380.436 404.999 373.477V349.463C404.999 342.503 398.134 337.224 390.099 337.224ZM440.067 349.463V373.477C440.067 380.436 446.933 385.717 454.967 385.717H481.286C489.32 385.717 496.186 380.436 496.186 373.477V349.463C496.186 342.503 489.32 337.224 481.286 337.224H454.967C446.933 337.224 440.067 342.503 440.067 349.463Z" fill="url(#paint0_linear_380_27)" stroke="#616161" stroke-width="2"/>
<path d="M290.804 523.571C262.998 523.571 240.836 505.379 240.836 483.36C240.836 461.34 262.998 443.149 290.804 443.149C318.61 443.149 340.772 461.34 340.772 483.36C340.772 505.379 318.61 523.571 290.804 523.571Z" fill="#2F2F2F" stroke="#616161" stroke-width="2"/>
<path d="M290.804 501.579C278.019 501.579 268.034 493.234 268.034 483.36C268.034 473.486 278.019 465.141 290.804 465.141C303.588 465.141 313.573 473.486 313.573 483.36C313.573 493.234 303.588 501.579 290.804 501.579Z" fill="#65878D" stroke="#616161" stroke-width="2"/>
<path d="M535.636 523.571C507.83 523.571 485.667 505.379 485.667 483.36C485.667 461.34 507.83 443.149 535.636 443.149C563.441 443.149 585.604 461.34 585.604 483.36C585.604 505.379 563.441 523.571 535.636 523.571Z" fill="#2F2F2F" stroke="#616161" stroke-width="2"/>
<path d="M535.636 501.579C522.852 501.579 512.867 493.234 512.867 483.36C512.867 473.486 522.852 465.141 535.636 465.141C548.421 465.141 558.406 473.486 558.406 483.36C558.406 493.234 548.421 501.579 535.636 501.579Z" fill="#65878D" stroke="#616161" stroke-width="2"/>
<path d="M91.3339 172.643C72.7151 172.643 58 160.473 58 145.882C58 131.29 72.7151 119.121 91.3339 119.121C109.953 119.121 124.668 131.29 124.668 145.882C124.668 160.473 109.953 172.643 91.3339 172.643Z" fill="#DC3545" stroke="#616161" stroke-width="2"/>
<mask id="path-10-inside-1_380_27" fill="white">
<path d="M280.522 191.567C275.276 191.359 270.605 190.34 266.507 188.51C262.412 186.638 258.966 184.145 256.17 181.032C253.416 177.921 251.347 174.357 249.963 170.341C248.581 166.283 247.979 162.005 248.157 157.509L248.256 155.011C248.459 149.89 249.373 145.235 250.998 141.046C252.624 136.857 254.851 133.255 257.681 130.239C260.553 127.226 263.978 124.964 267.958 123.453C271.939 121.901 276.386 121.223 281.299 121.417C286.087 121.607 290.302 122.566 293.945 124.295C297.588 126.024 300.6 128.395 302.983 131.408C305.407 134.423 307.184 137.996 308.313 142.127C309.444 146.217 309.911 150.739 309.715 155.693L309.418 163.188L255.71 161.061L256.185 149.07L292.219 150.497L292.274 149.123C292.372 146.625 292.003 144.379 291.164 142.386C290.369 140.353 289.099 138.718 287.355 137.482C285.611 136.245 283.344 135.572 280.555 135.461C278.182 135.367 276.121 135.807 274.373 136.78C272.625 137.753 271.172 139.155 270.016 140.986C268.901 142.818 268.022 144.993 267.38 147.512C266.782 149.99 266.423 152.728 266.304 155.726L266.205 158.224C266.098 160.93 266.374 163.443 267.033 165.762C267.733 168.083 268.758 170.105 270.108 171.827C271.499 173.55 273.197 174.91 275.2 175.906C277.246 176.905 279.58 177.456 282.203 177.56C285.45 177.688 288.494 177.183 291.332 176.045C294.215 174.866 296.727 173.027 298.869 170.526L307.237 180.365C305.74 182.349 303.727 184.229 301.196 186.005C298.707 187.783 295.732 189.208 292.27 190.281C288.81 191.311 284.894 191.74 280.522 191.567ZM367.946 169.947C368.011 168.323 367.819 166.855 367.37 165.545C366.965 164.195 366.138 162.953 364.891 161.819C363.644 160.644 361.877 159.469 359.588 158.294C357.3 157.119 354.326 155.875 350.667 154.563C346.597 153.067 342.743 151.414 339.104 149.602C335.506 147.791 332.335 145.726 329.591 143.408C326.891 141.049 324.787 138.36 323.281 135.339C321.816 132.321 321.161 128.854 321.316 124.941C321.466 121.152 322.434 117.75 324.222 114.735C326.011 111.679 328.448 109.106 331.533 107.019C334.62 104.889 338.227 103.301 342.355 102.256C346.524 101.211 351.066 100.787 355.978 100.981C362.682 101.247 368.483 102.686 373.384 105.298C378.284 107.911 382.025 111.374 384.606 115.688C387.229 120.004 388.434 124.868 388.219 130.28L369.609 129.543C369.714 126.878 369.245 124.525 368.2 122.482C367.198 120.399 365.596 118.73 363.394 117.475C361.234 116.222 358.467 115.529 355.095 115.395C351.847 115.266 349.121 115.659 346.917 116.572C344.714 117.444 343.038 118.691 341.89 120.314C340.743 121.895 340.129 123.705 340.049 125.745C339.988 127.286 340.307 128.695 341.007 129.974C341.749 131.254 342.868 132.466 344.366 133.61C345.863 134.753 347.717 135.848 349.928 136.895C352.138 137.941 354.703 138.981 357.623 140.014C362.518 141.709 366.802 143.568 370.475 145.59C374.189 147.613 377.27 149.841 379.717 152.273C382.165 154.705 383.975 157.425 385.149 160.432C386.322 163.439 386.835 166.816 386.687 170.564C386.53 174.519 385.62 178.027 383.955 181.089C382.291 184.15 379.959 186.706 376.959 188.756C373.959 190.805 370.417 192.312 366.334 193.276C362.251 194.24 357.712 194.624 352.716 194.426C348.219 194.248 343.808 193.489 339.483 192.15C335.159 190.77 331.255 188.801 327.77 186.245C324.327 183.69 321.618 180.497 319.643 176.666C317.668 172.834 316.782 168.358 316.984 163.237L335.782 163.981C335.67 166.812 336.012 169.224 336.809 171.216C337.606 173.207 338.772 174.838 340.306 176.108C341.882 177.379 343.762 178.33 345.947 178.958C348.174 179.589 350.62 179.956 353.285 180.062C356.532 180.191 359.215 179.838 361.333 179.005C363.492 178.173 365.104 176.965 366.167 175.381C367.273 173.798 367.866 171.987 367.946 169.947ZM418.703 99.7122L414.904 195.637L396.918 194.925L400.717 99L418.703 99.7122ZM413.775 159.376L408.842 159.181C409.07 154.478 409.866 150.173 411.23 146.265C412.595 142.316 414.46 138.929 416.824 136.104C419.189 133.237 421.965 131.053 425.152 129.553C428.38 128.055 431.91 127.382 435.74 127.533C439.071 127.665 442.07 128.263 444.739 129.328C447.45 130.353 449.743 131.945 451.618 134.104C453.535 136.223 454.969 138.97 455.92 142.343C456.871 145.717 457.252 149.777 457.064 154.523L455.372 197.24L437.261 196.523L438.958 153.681C439.077 150.683 438.733 148.314 437.926 146.572C437.163 144.79 435.983 143.514 434.387 142.742C432.835 141.93 430.893 141.477 428.561 141.385C425.98 141.283 423.755 141.674 421.885 142.559C420.057 143.446 418.567 144.721 417.417 146.385C416.269 148.008 415.4 149.933 414.812 152.162C414.223 154.39 413.878 156.795 413.775 159.376ZM467.487 164.568L467.539 163.257C467.735 158.302 468.624 153.772 470.204 149.664C471.786 145.515 473.991 141.954 476.819 138.98C479.648 136.006 483.073 133.744 487.096 132.194C491.12 130.602 495.693 129.908 500.814 130.11C505.935 130.313 510.46 131.368 514.387 133.275C518.316 135.14 521.573 137.667 524.157 140.855C526.783 144.045 528.721 147.77 529.97 152.031C531.22 156.251 531.748 160.837 531.551 165.792L531.499 167.104C531.305 172.017 530.417 176.548 528.834 180.697C527.254 184.804 525.028 188.364 522.157 191.378C519.328 194.352 515.903 196.614 511.88 198.164C507.857 199.715 503.285 200.388 498.164 200.186C493.043 199.983 488.518 198.949 484.589 197.084C480.701 195.22 477.444 192.693 474.819 189.504C472.236 186.274 470.319 182.549 469.069 178.33C467.82 174.069 467.293 169.482 467.487 164.568ZM485.525 163.969L485.473 165.281C485.361 168.112 485.506 170.766 485.908 173.242C486.311 175.718 487.016 177.915 488.024 179.831C489.076 181.707 490.476 183.201 492.225 184.313C493.974 185.425 496.139 186.032 498.721 186.134C501.219 186.233 503.383 185.798 505.215 184.828C507.046 183.858 508.54 182.478 509.695 180.689C510.851 178.859 511.728 176.725 512.325 174.288C512.964 171.853 513.339 169.22 513.451 166.389L513.503 165.077C513.612 162.329 513.443 159.737 512.998 157.301C512.595 154.825 511.869 152.628 510.819 150.71C509.813 148.752 508.436 147.196 506.688 146.043C504.941 144.889 502.797 144.262 500.258 144.162C497.718 144.061 495.532 144.517 493.699 145.528C491.907 146.541 490.411 147.983 489.211 149.854C488.055 151.685 487.178 153.818 486.581 156.255C485.986 158.65 485.634 161.221 485.525 163.969ZM561.39 146.77L558.2 227.333L540.214 226.62L543.918 133.068L560.593 133.729L561.39 146.77ZM603.375 168.511L603.323 169.823C603.129 174.736 602.365 179.272 601.033 183.431C599.742 187.591 597.932 191.189 595.601 194.224C593.273 197.218 590.429 199.524 587.071 201.142C583.756 202.72 579.975 203.426 575.728 203.257C571.607 203.094 568.059 202.12 565.086 200.334C562.112 198.548 559.644 196.115 557.681 193.035C555.762 189.915 554.256 186.332 553.166 182.286C552.075 178.239 551.287 173.913 550.802 169.307L550.938 165.872C551.799 160.985 552.935 156.527 554.345 152.496C555.758 148.424 557.543 144.929 559.702 142.012C561.904 139.055 564.537 136.804 567.6 135.257C570.706 133.712 574.298 133.02 578.378 133.182C582.667 133.352 586.402 134.313 589.586 136.065C592.81 137.819 595.466 140.26 597.552 143.386C599.68 146.514 601.223 150.203 602.18 154.453C603.18 158.704 603.578 163.39 603.375 168.511ZM585.275 169.108L585.327 167.797C585.44 164.924 585.295 162.27 584.891 159.835C584.531 157.361 583.866 155.187 582.898 153.314C581.971 151.443 580.695 149.974 579.069 148.909C577.487 147.804 575.53 147.205 573.198 147.113C570.742 147.016 568.624 147.328 566.844 148.05C565.105 148.773 563.665 149.863 562.523 151.319C561.381 152.775 560.499 154.533 559.875 156.593C559.251 158.653 558.825 160.992 558.596 163.61L558.253 172.292C558.339 175.381 558.812 178.172 559.672 180.667C560.534 183.119 561.936 185.093 563.879 186.588C565.821 188.083 568.416 188.894 571.664 189.023C574.037 189.117 576.056 188.676 577.721 187.699C579.387 186.681 580.757 185.255 581.831 183.421C582.946 181.588 583.76 179.452 584.274 177.012C584.829 174.574 585.163 171.939 585.275 169.108Z"/>
</mask>
<path d="M280.522 191.567C275.276 191.359 270.605 190.34 266.507 188.51C262.412 186.638 258.966 184.145 256.17 181.032C253.416 177.921 251.347 174.357 249.963 170.341C248.581 166.283 247.979 162.005 248.157 157.509L248.256 155.011C248.459 149.89 249.373 145.235 250.998 141.046C252.624 136.857 254.851 133.255 257.681 130.239C260.553 127.226 263.978 124.964 267.958 123.453C271.939 121.901 276.386 121.223 281.299 121.417C286.087 121.607 290.302 122.566 293.945 124.295C297.588 126.024 300.6 128.395 302.983 131.408C305.407 134.423 307.184 137.996 308.313 142.127C309.444 146.217 309.911 150.739 309.715 155.693L309.418 163.188L255.71 161.061L256.185 149.07L292.219 150.497L292.274 149.123C292.372 146.625 292.003 144.379 291.164 142.386C290.369 140.353 289.099 138.718 287.355 137.482C285.611 136.245 283.344 135.572 280.555 135.461C278.182 135.367 276.121 135.807 274.373 136.78C272.625 137.753 271.172 139.155 270.016 140.986C268.901 142.818 268.022 144.993 267.38 147.512C266.782 149.99 266.423 152.728 266.304 155.726L266.205 158.224C266.098 160.93 266.374 163.443 267.033 165.762C267.733 168.083 268.758 170.105 270.108 171.827C271.499 173.55 273.197 174.91 275.2 175.906C277.246 176.905 279.58 177.456 282.203 177.56C285.45 177.688 288.494 177.183 291.332 176.045C294.215 174.866 296.727 173.027 298.869 170.526L307.237 180.365C305.74 182.349 303.727 184.229 301.196 186.005C298.707 187.783 295.732 189.208 292.27 190.281C288.81 191.311 284.894 191.74 280.522 191.567ZM367.946 169.947C368.011 168.323 367.819 166.855 367.37 165.545C366.965 164.195 366.138 162.953 364.891 161.819C363.644 160.644 361.877 159.469 359.588 158.294C357.3 157.119 354.326 155.875 350.667 154.563C346.597 153.067 342.743 151.414 339.104 149.602C335.506 147.791 332.335 145.726 329.591 143.408C326.891 141.049 324.787 138.36 323.281 135.339C321.816 132.321 321.161 128.854 321.316 124.941C321.466 121.152 322.434 117.75 324.222 114.735C326.011 111.679 328.448 109.106 331.533 107.019C334.62 104.889 338.227 103.301 342.355 102.256C346.524 101.211 351.066 100.787 355.978 100.981C362.682 101.247 368.483 102.686 373.384 105.298C378.284 107.911 382.025 111.374 384.606 115.688C387.229 120.004 388.434 124.868 388.219 130.28L369.609 129.543C369.714 126.878 369.245 124.525 368.2 122.482C367.198 120.399 365.596 118.73 363.394 117.475C361.234 116.222 358.467 115.529 355.095 115.395C351.847 115.266 349.121 115.659 346.917 116.572C344.714 117.444 343.038 118.691 341.89 120.314C340.743 121.895 340.129 123.705 340.049 125.745C339.988 127.286 340.307 128.695 341.007 129.974C341.749 131.254 342.868 132.466 344.366 133.61C345.863 134.753 347.717 135.848 349.928 136.895C352.138 137.941 354.703 138.981 357.623 140.014C362.518 141.709 366.802 143.568 370.475 145.59C374.189 147.613 377.27 149.841 379.717 152.273C382.165 154.705 383.975 157.425 385.149 160.432C386.322 163.439 386.835 166.816 386.687 170.564C386.53 174.519 385.62 178.027 383.955 181.089C382.291 184.15 379.959 186.706 376.959 188.756C373.959 190.805 370.417 192.312 366.334 193.276C362.251 194.24 357.712 194.624 352.716 194.426C348.219 194.248 343.808 193.489 339.483 192.15C335.159 190.77 331.255 188.801 327.77 186.245C324.327 183.69 321.618 180.497 319.643 176.666C317.668 172.834 316.782 168.358 316.984 163.237L335.782 163.981C335.67 166.812 336.012 169.224 336.809 171.216C337.606 173.207 338.772 174.838 340.306 176.108C341.882 177.379 343.762 178.33 345.947 178.958C348.174 179.589 350.62 179.956 353.285 180.062C356.532 180.191 359.215 179.838 361.333 179.005C363.492 178.173 365.104 176.965 366.167 175.381C367.273 173.798 367.866 171.987 367.946 169.947ZM418.703 99.7122L414.904 195.637L396.918 194.925L400.717 99L418.703 99.7122ZM413.775 159.376L408.842 159.181C409.07 154.478 409.866 150.173 411.23 146.265C412.595 142.316 414.46 138.929 416.824 136.104C419.189 133.237 421.965 131.053 425.152 129.553C428.38 128.055 431.91 127.382 435.74 127.533C439.071 127.665 442.07 128.263 444.739 129.328C447.45 130.353 449.743 131.945 451.618 134.104C453.535 136.223 454.969 138.97 455.92 142.343C456.871 145.717 457.252 149.777 457.064 154.523L455.372 197.24L437.261 196.523L438.958 153.681C439.077 150.683 438.733 148.314 437.926 146.572C437.163 144.79 435.983 143.514 434.387 142.742C432.835 141.93 430.893 141.477 428.561 141.385C425.98 141.283 423.755 141.674 421.885 142.559C420.057 143.446 418.567 144.721 417.417 146.385C416.269 148.008 415.4 149.933 414.812 152.162C414.223 154.39 413.878 156.795 413.775 159.376ZM467.487 164.568L467.539 163.257C467.735 158.302 468.624 153.772 470.204 149.664C471.786 145.515 473.991 141.954 476.819 138.98C479.648 136.006 483.073 133.744 487.096 132.194C491.12 130.602 495.693 129.908 500.814 130.11C505.935 130.313 510.46 131.368 514.387 133.275C518.316 135.14 521.573 137.667 524.157 140.855C526.783 144.045 528.721 147.77 529.97 152.031C531.22 156.251 531.748 160.837 531.551 165.792L531.499 167.104C531.305 172.017 530.417 176.548 528.834 180.697C527.254 184.804 525.028 188.364 522.157 191.378C519.328 194.352 515.903 196.614 511.88 198.164C507.857 199.715 503.285 200.388 498.164 200.186C493.043 199.983 488.518 198.949 484.589 197.084C480.701 195.22 477.444 192.693 474.819 189.504C472.236 186.274 470.319 182.549 469.069 178.33C467.82 174.069 467.293 169.482 467.487 164.568ZM485.525 163.969L485.473 165.281C485.361 168.112 485.506 170.766 485.908 173.242C486.311 175.718 487.016 177.915 488.024 179.831C489.076 181.707 490.476 183.201 492.225 184.313C493.974 185.425 496.139 186.032 498.721 186.134C501.219 186.233 503.383 185.798 505.215 184.828C507.046 183.858 508.54 182.478 509.695 180.689C510.851 178.859 511.728 176.725 512.325 174.288C512.964 171.853 513.339 169.22 513.451 166.389L513.503 165.077C513.612 162.329 513.443 159.737 512.998 157.301C512.595 154.825 511.869 152.628 510.819 150.71C509.813 148.752 508.436 147.196 506.688 146.043C504.941 144.889 502.797 144.262 500.258 144.162C497.718 144.061 495.532 144.517 493.699 145.528C491.907 146.541 490.411 147.983 489.211 149.854C488.055 151.685 487.178 153.818 486.581 156.255C485.986 158.65 485.634 161.221 485.525 163.969ZM561.39 146.77L558.2 227.333L540.214 226.62L543.918 133.068L560.593 133.729L561.39 146.77ZM603.375 168.511L603.323 169.823C603.129 174.736 602.365 179.272 601.033 183.431C599.742 187.591 597.932 191.189 595.601 194.224C593.273 197.218 590.429 199.524 587.071 201.142C583.756 202.72 579.975 203.426 575.728 203.257C571.607 203.094 568.059 202.12 565.086 200.334C562.112 198.548 559.644 196.115 557.681 193.035C555.762 189.915 554.256 186.332 553.166 182.286C552.075 178.239 551.287 173.913 550.802 169.307L550.938 165.872C551.799 160.985 552.935 156.527 554.345 152.496C555.758 148.424 557.543 144.929 559.702 142.012C561.904 139.055 564.537 136.804 567.6 135.257C570.706 133.712 574.298 133.02 578.378 133.182C582.667 133.352 586.402 134.313 589.586 136.065C592.81 137.819 595.466 140.26 597.552 143.386C599.68 146.514 601.223 150.203 602.18 154.453C603.18 158.704 603.578 163.39 603.375 168.511ZM585.275 169.108L585.327 167.797C585.44 164.924 585.295 162.27 584.891 159.835C584.531 157.361 583.866 155.187 582.898 153.314C581.971 151.443 580.695 149.974 579.069 148.909C577.487 147.804 575.53 147.205 573.198 147.113C570.742 147.016 568.624 147.328 566.844 148.05C565.105 148.773 563.665 149.863 562.523 151.319C561.381 152.775 560.499 154.533 559.875 156.593C559.251 158.653 558.825 160.992 558.596 163.61L558.253 172.292C558.339 175.381 558.812 178.172 559.672 180.667C560.534 183.119 561.936 185.093 563.879 186.588C565.821 188.083 568.416 188.894 571.664 189.023C574.037 189.117 576.056 188.676 577.721 187.699C579.387 186.681 580.757 185.255 581.831 183.421C582.946 181.588 583.76 179.452 584.274 177.012C584.829 174.574 585.163 171.939 585.275 169.108Z" fill="#DC3545" stroke="#616161" stroke-width="4" mask="url(#path-10-inside-1_380_27)"/>
<defs>
<linearGradient id="paint0_linear_380_27" x1="225" y1="248" x2="601" y2="456" gradientUnits="userSpaceOnUse">
<stop stop-color="#5D05B5"/>
<stop offset="0.58946" stop-color="#9E1E7C"/>
<stop offset="1" stop-color="#DC3545"/>
</linearGradient>
</defs>
</svg>
