<svg width="40" height="30" viewBox="0 0 52 44" fill="none" xmlns="http://www.w3.org/2000/svg">
<path d="M12.6129 13.0497L16.4645 13.4426L14.7833 5.48802C14.6324 4.77126 14.2835 4.10759 13.7739 3.56767C13.2643 3.02775 12.613 2.63181 11.8894 2.42202L4.15691 0.170119C2.62212 -0.275402 1.07478 0.83435 1.07478 2.38962C1.07478 3.85174 2.57612 4.87239 3.99381 4.37422L5.06858 4.1393L9.40112 5.38271C9.82242 5.50415 10.2035 5.73031 10.5066 6.0387C10.8096 6.34709 11.0239 6.72696 11.1283 7.1405L12.6129 13.0497ZM16.6067 29.935L19.2873 40.9717L22.5451 39.8579L20.5378 29.935H16.6067Z" fill="black" fill-opacity="0.9"/>
<path d="M18.5011 37.7316H44.8142V41.1054H19.095L18.5011 37.7316Z" fill="#65878D"/>
<path d="M51.8776 15.893L48.7787 30.5222C48.5404 31.6563 47.5116 32.4663 46.3197 32.4663H17.6648C17.4755 32.4665 17.2919 32.4044 17.1438 32.2904C16.9957 32.1764 16.8918 32.0171 16.8493 31.8386L11.8225 10.7735C11.6929 10.2348 12.1445 9.73667 12.7133 9.78527L49.6444 12.9849C49.9964 13.0153 50.3377 13.1173 50.6461 13.2844C50.9544 13.4515 51.2228 13.6798 51.4337 13.9544C51.6446 14.229 51.7931 14.5436 51.8696 14.8777C51.9461 15.2118 51.9488 15.5578 51.8776 15.893V15.893ZM46.0437 16.3344L44.2622 16.1805C44.0886 16.1654 43.9136 16.1855 43.7484 16.2394C43.5832 16.2934 43.4315 16.3801 43.3028 16.4941C43.1742 16.608 43.0714 16.7467 43.0012 16.9012C42.9309 17.0557 42.8946 17.2227 42.8947 17.3915V19.3437C42.8947 20.016 43.4551 20.5588 44.1493 20.5588H46.0228C46.6167 20.5588 47.131 20.1538 47.2523 19.5867L47.5283 18.2745C47.5771 18.0511 47.5764 17.8203 47.5262 17.5973C47.476 17.3743 47.3774 17.1641 47.2371 16.9807C47.0967 16.7973 46.9178 16.6448 46.7121 16.5334C46.5063 16.422 46.2785 16.3542 46.0437 16.3344V16.3344ZM30.0643 23.7949H27.689C26.9948 23.7949 26.4344 24.3376 26.4344 25.0099V27.6061C26.4344 28.2784 26.9948 28.8212 27.689 28.8212H30.0643C30.7586 28.8212 31.3189 28.2784 31.3189 27.6061V25.0099C31.3189 24.3376 30.7586 23.7949 30.0643 23.7949ZM27.689 20.5547H30.0643C30.7586 20.5547 31.3189 20.012 31.3189 19.3397V16.1684C31.3189 15.5406 30.8213 15.0141 30.1773 14.9574L27.8019 14.7508C27.6283 14.7357 27.4533 14.7557 27.2881 14.8097C27.1229 14.8637 26.9712 14.9504 26.8425 15.0644C26.7139 15.1783 26.6111 15.3169 26.5408 15.4715C26.4706 15.626 26.4343 15.793 26.4344 15.9618V19.3397C26.4344 20.012 26.9948 20.5547 27.689 20.5547ZM34.6645 25.0099V27.6061C34.6645 28.2784 35.2249 28.8212 35.9191 28.8212H38.2945C38.9887 28.8212 39.5491 28.2784 39.5491 27.6061V25.0099C39.5491 24.3376 38.9887 23.7949 38.2945 23.7949H35.9191C35.2249 23.7949 34.6645 24.3376 34.6645 25.0099ZM35.9191 20.5547H38.2945C38.9887 20.5547 39.5491 20.012 39.5491 19.3397V16.8812C39.5491 16.2534 39.0514 15.7269 38.4074 15.6702L36.032 15.4636C35.8584 15.4485 35.6834 15.4686 35.5183 15.5226C35.3531 15.5765 35.2013 15.6633 35.0727 15.7772C34.944 15.8911 34.8413 16.0298 34.771 16.1843C34.7007 16.3388 34.6645 16.5058 34.6645 16.6746V19.3397C34.6645 20.012 35.2249 20.5547 35.9191 20.5547ZM16.7907 15.3948L17.7986 19.611C17.8624 19.8783 18.0179 20.1167 18.2397 20.2874C18.4615 20.4581 18.7365 20.5509 19.0197 20.5507H21.8342C22.5284 20.5507 23.0888 20.008 23.0888 19.3356V15.4555C23.0888 14.8278 22.5911 14.3012 21.9471 14.2445L18.129 13.9124C17.2758 13.8395 16.5983 14.5928 16.7907 15.3948V15.3948ZM21.324 28.8212H22.2482C22.7082 28.8212 23.0846 28.4566 23.0846 28.0111V25.0099C23.0846 24.3376 22.5242 23.7949 21.83 23.7949H20.3705C19.5634 23.7949 18.9654 24.5239 19.1494 25.2853L19.693 27.5697C19.7797 27.9256 19.9878 28.2429 20.2838 28.47C20.5798 28.6972 20.9463 28.8209 21.324 28.8212V28.8212ZM46.1065 24.9978C46.2403 24.3741 45.7468 23.7908 45.0902 23.7908H44.1493C43.4551 23.7908 42.8947 24.3336 42.8947 25.0059V27.8127C42.8947 27.9446 42.9215 28.0752 42.9736 28.1971C43.0258 28.3189 43.1021 28.4296 43.1985 28.5229C43.2948 28.6162 43.4091 28.6902 43.5349 28.7407C43.6608 28.7911 43.7956 28.8171 43.9318 28.8171C44.7264 28.8171 45.4122 28.2744 45.5712 27.5211L46.1065 24.9978V24.9978Z" fill="#5D05B5"/>
<path d="M21.1023 43.9405C18.5617 43.9405 16.5021 41.9458 16.5021 39.4853C16.5021 37.0248 18.5617 35.0301 21.1023 35.0301C23.6429 35.0301 25.7025 37.0248 25.7025 39.4853C25.7025 41.9458 23.6429 43.9405 21.1023 43.9405Z" fill="#2F2F2F"/>
<path d="M21.1023 41.563C19.9174 41.563 18.9569 40.6328 18.9569 39.4853C18.9569 38.3378 19.9174 37.4075 21.1023 37.4075C22.2871 37.4075 23.2476 38.3378 23.2476 39.4853C23.2476 40.6328 22.2871 41.563 21.1023 41.563Z" fill="#65878D"/>
<path d="M43.1999 43.9405C40.6593 43.9405 38.5997 41.9458 38.5997 39.4853C38.5997 37.0248 40.6593 35.0301 43.1999 35.0301C45.7405 35.0301 47.8001 37.0248 47.8001 39.4853C47.8001 41.9458 45.7405 43.9405 43.1999 43.9405Z" fill="#2F2F2F"/>
<path d="M43.1999 41.563C42.0151 41.563 41.0546 40.6328 41.0546 39.4853C41.0546 38.3378 42.0151 37.4075 43.1999 37.4075C44.3848 37.4075 45.3453 38.3378 45.3453 39.4853C45.3453 40.6328 44.3848 41.563 43.1999 41.563Z" fill="#65878D"/>
<path d="M3.09884 6.00238C1.38739 6.00238 -1.19209e-05 4.6587 -1.19209e-05 3.00119C-1.19209e-05 1.34368 1.38739 0 3.09884 0C4.81029 0 6.19769 1.34368 6.19769 3.00119C6.19769 4.6587 4.81029 6.00238 3.09884 6.00238Z" fill="#DC3545"/>
</svg>
