<svg width="40" height="30" viewBox="0 0 36 30" fill="none" xmlns="http://www.w3.org/2000/svg">
<path d="M8.59932 8.89755L11.2254 9.16543L10.0791 3.74186C9.97625 3.25316 9.73837 2.80065 9.39091 2.43253C9.04346 2.0644 8.59939 1.79444 8.10603 1.6514L2.83387 0.116015C1.78743 -0.187749 0.732422 0.5689 0.732422 1.62931C0.732422 2.62621 1.75606 3.32211 2.72267 2.98245L3.45547 2.82227L6.40947 3.67005C6.69672 3.75285 6.95655 3.90705 7.16321 4.11732C7.3698 4.32759 7.51591 4.58659 7.58709 4.86855L8.59932 8.89755ZM11.3224 20.4103L13.15 27.9353L15.3713 27.1759L14.0027 20.4103H11.3224Z" fill="black" fill-opacity="0.9"/>
<path d="M12.6143 25.7261H30.555V28.0264H13.0192L12.6143 25.7261Z" fill="#65878D"/>
<path d="M35.371 10.836L33.2581 20.8105C33.0956 21.5837 32.3941 22.136 31.5815 22.136H12.044C11.915 22.1361 11.7898 22.0938 11.6888 22.0161C11.5878 21.9384 11.517 21.8297 11.488 21.708L8.06066 7.34547C7.9723 6.97817 8.2802 6.63854 8.66802 6.67167L33.8483 8.85324C34.0883 8.87397 34.321 8.94351 34.5313 9.05744C34.7415 9.17138 34.9245 9.32704 35.0683 9.51426C35.2121 9.70149 35.3133 9.91599 35.3655 10.1438C35.4177 10.3716 35.4195 10.6075 35.371 10.836ZM31.3933 11.137L30.1786 11.0321C30.0603 11.0218 29.941 11.0355 29.8283 11.0722C29.7157 11.109 29.6122 11.1681 29.5245 11.2459C29.4368 11.3235 29.3667 11.4181 29.3189 11.5234C29.2709 11.6288 29.2462 11.7426 29.2462 11.8577V13.1888C29.2462 13.6472 29.6283 14.0173 30.1017 14.0173H31.379C31.784 14.0173 32.1346 13.7411 32.2173 13.3545L32.4055 12.4598C32.4388 12.3075 32.4383 12.1501 32.4041 11.9981C32.3699 11.846 32.3026 11.7027 32.207 11.5776C32.1112 11.4526 31.9893 11.3486 31.849 11.2727C31.7087 11.1967 31.5534 11.1505 31.3933 11.137ZM20.4983 16.2237H18.8787C18.4054 16.2237 18.0233 16.5937 18.0233 17.0521V18.8222C18.0233 19.2806 18.4054 19.6507 18.8787 19.6507H20.4983C20.9716 19.6507 21.3537 19.2806 21.3537 18.8222V17.0521C21.3537 16.5937 20.9716 16.2237 20.4983 16.2237ZM18.8787 14.0145H20.4983C20.9716 14.0145 21.3537 13.6444 21.3537 13.1861V11.0238C21.3537 10.5958 21.0144 10.2368 20.5753 10.1981L18.9557 10.0573C18.8373 10.047 18.718 10.0606 18.6054 10.0974C18.4927 10.1342 18.3893 10.1934 18.3016 10.2711C18.2139 10.3487 18.1438 10.4432 18.0959 10.5486C18.048 10.654 18.0232 10.7679 18.0233 10.8829V13.1861C18.0233 13.6444 18.4054 14.0145 18.8787 14.0145ZM23.6348 17.0521V18.8222C23.6348 19.2806 24.0168 19.6507 24.4902 19.6507H26.1097C26.5831 19.6507 26.9652 19.2806 26.9652 18.8222V17.0521C26.9652 16.5937 26.5831 16.2237 26.1097 16.2237H24.4902C24.0168 16.2237 23.6348 16.5937 23.6348 17.0521ZM24.4902 14.0145H26.1097C26.5831 14.0145 26.9652 13.6444 26.9652 13.1861V11.5098C26.9652 11.0818 26.6258 10.7228 26.1867 10.6841L24.5671 10.5433C24.4488 10.533 24.3295 10.5467 24.2169 10.5835C24.1042 10.6202 24.0008 10.6794 23.9131 10.7571C23.8253 10.8347 23.7553 10.9293 23.7074 11.0346C23.6594 11.14 23.6348 11.2539 23.6348 11.3689V13.1861C23.6348 13.6444 24.0168 14.0145 24.4902 14.0145ZM11.4481 10.4964L12.1353 13.371C12.1788 13.5533 12.2848 13.7158 12.436 13.8322C12.5872 13.9486 12.7747 14.0119 12.9678 14.0117H14.8868C15.3601 14.0117 15.7422 13.6417 15.7422 13.1833V10.5377C15.7422 10.1098 15.4029 9.75072 14.9638 9.71206L12.3605 9.48563C11.7788 9.43592 11.3169 9.94954 11.4481 10.4964ZM14.539 19.6507H15.1691C15.4827 19.6507 15.7394 19.4021 15.7394 19.0984V17.0521C15.7394 16.5937 15.3573 16.2237 14.884 16.2237H13.8888C13.3385 16.2237 12.9308 16.7207 13.0563 17.2399L13.4269 18.7974C13.486 19.0401 13.6279 19.2564 13.8297 19.4113C14.0315 19.5662 14.2814 19.6505 14.539 19.6507ZM31.4361 17.0439C31.5273 16.6186 31.1909 16.2209 30.7432 16.2209H30.1017C29.6283 16.2209 29.2462 16.591 29.2462 17.0494V18.9631C29.2462 19.053 29.2645 19.1421 29.3 19.2252C29.3356 19.3082 29.3877 19.3837 29.4534 19.4473C29.519 19.5109 29.597 19.5614 29.6828 19.5958C29.7686 19.6302 29.8605 19.6479 29.9534 19.6479C30.4951 19.6479 30.9627 19.2779 31.0711 18.7643L31.4361 17.0439Z" fill="url(#paint0_linear_385_48)"/>
<path d="M14.3875 29.9595C12.6552 29.9595 11.251 28.5995 11.251 26.9219C11.251 25.2443 12.6552 23.8843 14.3875 23.8843C16.1197 23.8843 17.524 25.2443 17.524 26.9219C17.524 28.5995 16.1197 29.9595 14.3875 29.9595Z" fill="#2F2F2F"/>
<path d="M14.3876 28.3384C13.5797 28.3384 12.9248 27.7042 12.9248 26.9218C12.9248 26.1394 13.5797 25.5051 14.3876 25.5051C15.1954 25.5051 15.8503 26.1394 15.8503 26.9218C15.8503 27.7042 15.1954 28.3384 14.3876 28.3384Z" fill="#65878D"/>
<path d="M29.4544 29.9595C27.7221 29.9595 26.3179 28.5995 26.3179 26.9219C26.3179 25.2443 27.7221 23.8843 29.4544 23.8843C31.1866 23.8843 32.5909 25.2443 32.5909 26.9219C32.5909 28.5995 31.1866 29.9595 29.4544 29.9595Z" fill="#2F2F2F"/>
<path d="M29.4544 28.3384C28.6466 28.3384 27.9917 27.7042 27.9917 26.9218C27.9917 26.1394 28.6466 25.5051 29.4544 25.5051C30.2623 25.5051 30.9172 26.1394 30.9172 26.9218C30.9172 27.7042 30.2623 28.3384 29.4544 28.3384Z" fill="#65878D"/>
<path d="M2.11285 4.09253C0.945956 4.09253 0 3.17639 0 2.04627C0 0.916145 0.945956 0 2.11285 0C3.27975 0 4.22571 0.916145 4.22571 2.04627C4.22571 3.17639 3.27975 4.09253 2.11285 4.09253Z" fill="#DC3545"/>
<defs>
<linearGradient id="paint0_linear_385_48" x1="10.3383" y1="9.5733" x2="35.2451" y2="21.0763" gradientUnits="userSpaceOnUse">
<stop stop-color="#5D05B5"/>
<stop offset="0.58946" stop-color="#9E1E7C"/>
<stop offset="1" stop-color="#DC3545"/>
</linearGradient>
</defs>
</svg>
