<svg width="576" height="426" viewBox="0 0 576 426" fill="none" xmlns="http://www.w3.org/2000/svg">
<path d="M139.745 139.831L182.419 143.465L163.792 69.8846C162.12 63.2546 158.255 57.1156 152.609 52.1214C146.963 47.1271 139.746 43.4646 131.729 41.5241L46.0568 20.694C29.052 16.5729 11.9082 26.8381 11.9082 41.2244C11.9082 54.749 28.5424 64.19 44.2497 59.5819L56.1577 57.4089L104.16 68.9105C108.828 70.0338 113.05 72.1256 116.408 74.9786C119.766 77.8306 122.14 81.3446 123.297 85.1696L139.745 139.831ZM183.995 296.02L213.695 398.109L249.79 387.806L227.55 296.02H183.995Z" fill="black" fill-opacity="0.9"/>
<path d="M204.984 368.138H496.521V399.346H211.564L204.984 368.138Z" fill="#65878D"/>
<path d="M574.78 166.131L540.446 301.451C537.806 311.942 526.407 319.434 513.201 319.434H195.718C193.621 319.436 191.586 318.862 189.946 317.807C188.305 316.753 187.154 315.279 186.683 313.628L130.988 118.776C129.552 113.793 134.556 109.185 140.858 109.635L550.038 139.231C553.938 139.513 557.719 140.456 561.136 142.002C564.552 143.547 567.525 145.659 569.862 148.199C572.199 150.739 573.844 153.649 574.692 156.74C575.539 159.83 575.569 163.031 574.78 166.131ZM510.143 170.214L490.405 168.791C488.482 168.651 486.543 168.837 484.713 169.336C482.882 169.835 481.201 170.637 479.775 171.691C478.351 172.745 477.212 174.028 476.434 175.457C475.655 176.886 475.253 178.431 475.254 179.992V198.05C475.254 204.269 481.463 209.29 489.154 209.29H509.912C516.492 209.29 522.19 205.544 523.534 200.298L526.592 188.16C527.133 186.094 527.125 183.959 526.569 181.896C526.013 179.833 524.92 177.889 523.366 176.193C521.81 174.496 519.828 173.085 517.549 172.055C515.269 171.025 512.745 170.397 510.143 170.214ZM333.099 239.224H306.782C299.09 239.224 292.881 244.244 292.881 250.463V274.477C292.881 280.696 299.09 285.717 306.782 285.717H333.099C340.791 285.717 346.999 280.696 346.999 274.477V250.463C346.999 244.244 340.791 239.224 333.099 239.224ZM306.782 209.252H333.099C340.791 209.252 346.999 204.232 346.999 198.013V168.679C346.999 162.872 341.486 158.001 334.351 157.477L308.033 155.566C306.109 155.426 304.17 155.611 302.34 156.111C300.509 156.61 298.829 157.412 297.403 158.467C295.978 159.52 294.839 160.802 294.06 162.232C293.282 163.662 292.88 165.206 292.881 166.768V198.013C292.881 204.232 299.09 209.252 306.782 209.252ZM384.067 250.463V274.477C384.067 280.696 390.276 285.717 397.967 285.717H424.286C431.977 285.717 438.186 280.696 438.186 274.477V250.463C438.186 244.244 431.977 239.224 424.286 239.224H397.967C390.276 239.224 384.067 244.244 384.067 250.463ZM397.967 209.252H424.286C431.977 209.252 438.186 204.232 438.186 198.013V175.272C438.186 169.465 432.672 164.595 425.537 164.07L399.218 162.159C397.295 162.02 395.356 162.206 393.527 162.705C391.696 163.204 390.015 164.007 388.59 165.06C387.164 166.114 386.026 167.397 385.247 168.826C384.468 170.255 384.067 171.8 384.067 173.361V198.013C384.067 204.232 390.276 209.252 397.967 209.252ZM186.033 161.523L197.2 200.523C197.907 202.995 199.63 205.201 202.088 206.779C204.545 208.358 207.592 209.217 210.73 209.215H241.913C249.605 209.215 255.814 204.195 255.814 197.975V162.084C255.814 156.278 250.299 151.407 243.164 150.883L200.861 147.811C191.408 147.136 183.902 154.104 186.033 161.523ZM236.26 285.717H246.5C251.597 285.717 255.767 282.345 255.767 278.224V250.463C255.767 244.244 249.558 239.224 241.867 239.224H225.696C216.754 239.224 210.128 245.967 212.167 253.01L218.19 274.141C219.15 277.433 221.456 280.368 224.735 282.469C228.015 284.57 232.076 285.714 236.26 285.717ZM510.839 250.351C512.322 244.581 506.854 239.186 499.579 239.186H489.154C481.463 239.186 475.254 244.207 475.254 250.426V276.389C475.254 277.609 475.551 278.817 476.128 279.944C476.706 281.071 477.552 282.095 478.62 282.958C479.687 283.821 480.953 284.505 482.347 284.973C483.742 285.439 485.235 285.679 486.744 285.679C495.548 285.679 503.147 280.659 504.908 273.691L510.839 250.351Z" fill="url(#paint0_linear_380_16)"/>
<path d="M233.804 425.571C205.655 425.571 182.836 407.12 182.836 384.36C182.836 361.6 205.655 343.149 233.804 343.149C261.953 343.149 284.772 361.6 284.772 384.36C284.772 407.12 261.953 425.571 233.804 425.571Z" fill="#2F2F2F"/>
<path d="M233.804 403.579C220.676 403.579 210.034 394.975 210.034 384.36C210.034 373.746 220.676 365.141 233.804 365.141C246.931 365.141 257.573 373.746 257.573 384.36C257.573 394.975 246.931 403.579 233.804 403.579Z" fill="#65878D"/>
<path d="M478.636 425.571C450.487 425.571 427.667 407.12 427.667 384.36C427.667 361.6 450.487 343.149 478.636 343.149C506.784 343.149 529.604 361.6 529.604 384.36C529.604 407.12 506.784 425.571 478.636 425.571Z" fill="#2F2F2F"/>
<path d="M478.636 403.579C465.509 403.579 454.867 394.975 454.867 384.36C454.867 373.746 465.509 365.141 478.636 365.141C491.764 365.141 502.406 373.746 502.406 384.36C502.406 394.975 491.764 403.579 478.636 403.579Z" fill="#65878D"/>
<path d="M34.3339 74.6426C15.3718 74.6426 0 62.2136 0 46.8816C0 31.5496 15.3718 19.1206 34.3339 19.1206C53.296 19.1206 68.6677 31.5496 68.6677 46.8816C68.6677 62.2136 53.296 74.6426 34.3339 74.6426Z" fill="#DC3545"/>
<path d="M223.522 92.5666C218.276 92.3586 213.605 91.3396 209.507 89.5096C205.412 87.6376 201.966 85.1446 199.17 82.0316C196.416 78.9206 194.347 75.3566 192.963 71.3406C191.581 67.2826 190.979 63.0054 191.157 58.5089L191.256 56.0109C191.459 50.8899 192.373 46.2349 193.998 42.0459C195.624 37.857 197.851 34.2548 200.681 31.2394C203.553 28.2257 206.978 25.9636 210.958 24.4533C214.939 22.9013 219.386 22.2225 224.299 22.4171C229.087 22.6067 233.302 23.5659 236.945 25.2947C240.588 27.0236 243.6 29.3947 245.983 32.408C248.407 35.4229 250.184 38.996 251.313 43.1273C252.444 47.2169 252.911 51.7389 252.715 56.6934L252.418 64.1875L198.71 62.0606L199.185 50.07L235.219 51.497L235.274 50.1231C235.372 47.625 235.003 45.3795 234.164 43.3864C233.369 41.3533 232.099 39.7185 230.355 38.4818C228.611 37.2452 226.344 36.5716 223.555 36.4611C221.182 36.3672 219.121 36.8068 217.373 37.7801C215.625 38.7533 214.172 40.1553 213.016 41.9859C211.901 43.8182 211.022 45.9935 210.38 48.5118C209.782 50.99 209.423 53.728 209.304 56.7256L209.205 59.2237C209.098 61.9299 209.374 64.4428 210.033 66.7623C210.733 69.0835 211.758 71.1046 213.108 72.8266C214.499 74.5496 216.197 75.9096 218.2 76.9056C220.246 77.9046 222.58 78.4556 225.203 78.5596C228.45 78.6876 231.494 78.1826 234.332 77.0446C237.215 75.8656 239.727 74.0266 241.869 71.5256L250.237 81.3646C248.74 83.3486 246.727 85.2286 244.196 87.0046C241.707 88.7826 238.732 90.2076 235.27 91.2806C231.81 92.3106 227.894 92.7396 223.522 92.5666ZM310.946 70.9466C311.011 69.3226 310.819 67.8555 310.37 66.545C309.965 65.1946 309.138 63.9526 307.891 62.819C306.644 61.6438 304.877 60.4687 302.588 59.2939C300.3 58.1191 297.326 56.8755 293.667 55.563C289.597 54.0674 285.743 52.4136 282.104 50.6015C278.506 48.7911 275.335 46.7265 272.591 44.4078C269.891 42.0491 267.787 39.3596 266.281 36.3392C264.816 33.3206 264.161 29.8544 264.316 25.9408C264.466 22.1521 265.434 18.7503 267.222 15.7353C269.011 12.6787 271.448 10.1065 274.533 8.0186C277.62 5.8891 281.227 4.3014 285.355 3.2556C289.524 2.2114 294.066 1.7866 298.978 1.9812C305.682 2.2466 311.483 3.6857 316.384 6.2983C321.284 8.9109 325.025 12.3742 327.606 16.688C330.229 21.0035 331.434 25.8675 331.219 31.2799L312.609 30.5429C312.714 27.8784 312.245 25.5246 311.2 23.4816C310.198 21.3987 308.596 19.7298 306.394 18.4751C304.234 17.2219 301.467 16.5286 298.095 16.395C294.847 16.2664 292.121 16.6589 289.917 17.5723C287.714 18.4442 286.038 19.6914 284.89 21.3138C283.743 22.8947 283.129 24.7052 283.049 26.7452C282.988 28.2857 283.307 29.6953 284.007 30.974C284.749 32.2543 285.868 33.4662 287.366 34.6097C288.863 35.7532 290.717 36.8483 292.928 37.8949C295.138 38.9415 297.703 39.9813 300.623 41.0143C305.518 42.7094 309.802 44.5678 313.475 46.5898C317.189 48.6133 320.27 50.8412 322.717 53.2732C325.165 55.7053 326.975 58.4249 328.149 61.432C329.322 64.4392 329.835 67.8163 329.687 71.5636C329.53 75.5186 328.62 79.0266 326.955 82.0886C325.291 85.1496 322.959 87.7056 319.959 89.7556C316.959 91.8046 313.417 93.3116 309.334 94.2756C305.251 95.2396 300.712 95.6236 295.716 95.4256C291.219 95.2476 286.808 94.4886 282.483 93.1496C278.159 91.7696 274.255 89.8006 270.77 87.2446C267.327 84.6896 264.618 81.4966 262.643 77.6656C260.668 73.8336 259.782 69.3579 259.984 64.2369L278.782 64.9814C278.67 67.8125 279.012 70.2236 279.809 72.2156C280.606 74.2066 281.772 75.8376 283.306 77.1076C284.882 78.3786 286.762 79.3296 288.947 79.9576C291.174 80.5886 293.62 80.9556 296.285 81.0616C299.532 81.1906 302.215 80.8376 304.333 80.0046C306.492 79.1726 308.104 77.9646 309.167 76.3806C310.273 74.7976 310.866 72.9866 310.946 70.9466ZM361.703 0.7122L357.904 96.6366L339.918 95.9246L343.717 0L361.703 0.7122ZM356.775 60.3765L351.842 60.1811C352.07 55.4781 352.866 51.1729 354.23 47.2655C355.595 43.3164 357.46 39.9292 359.824 37.1039C362.189 34.2369 364.965 32.0534 368.152 30.5533C371.38 29.0549 374.91 28.3815 378.74 28.5332C382.071 28.6651 385.07 29.2634 387.739 30.3282C390.45 31.353 392.743 32.9449 394.618 35.1041C396.535 37.2233 397.969 39.9697 398.92 43.3433C399.871 46.7169 400.252 50.7769 400.064 55.5231L398.372 98.2396L380.261 97.5226L381.958 54.681C382.077 51.6834 381.733 49.3137 380.926 47.5721C380.163 45.7905 378.983 44.5137 377.387 43.7416C375.835 42.9295 373.893 42.4773 371.561 42.385C368.98 42.2828 366.755 42.6742 364.885 43.5592C363.057 44.4459 361.567 45.7213 360.417 47.3854C359.269 49.0079 358.4 50.9334 357.812 53.1619C357.223 55.3903 356.878 57.7952 356.775 60.3765ZM410.487 65.5685L410.539 64.257C410.735 59.3025 411.624 54.7716 413.204 50.6643C414.786 46.5153 416.991 42.954 419.819 39.9802C422.648 37.0065 426.073 34.7444 430.096 33.194C434.12 31.602 438.693 30.9075 443.814 31.1103C448.935 31.3131 453.46 32.3679 457.387 34.2748C461.316 36.1401 464.573 38.6668 467.157 41.8549C469.783 45.0446 471.721 48.77 472.97 53.0311C474.22 57.2506 474.748 61.8375 474.551 66.792L474.499 68.1035C474.305 73.0166 473.417 77.5476 471.834 81.6966C470.254 85.8036 468.028 89.3636 465.157 92.3776C462.328 95.3516 458.903 97.6136 454.88 99.1636C450.857 100.715 446.285 101.388 441.164 101.186C436.043 100.983 431.518 99.9486 427.589 98.0836C423.701 96.2196 420.444 93.6926 417.819 90.5036C415.236 87.2736 413.319 83.5486 412.069 79.3296C410.82 75.0686 410.293 70.4816 410.487 65.5685ZM428.525 64.9693L428.473 66.2807C428.361 69.1118 428.506 71.7656 428.908 74.2416C429.311 76.7176 430.016 78.9146 431.024 80.8306C432.076 82.7066 433.476 84.2006 435.225 85.3126C436.974 86.4246 439.139 87.0316 441.721 87.1336C444.219 87.2326 446.383 86.7976 448.215 85.8276C450.046 84.8576 451.54 83.4776 452.695 81.6886C453.851 79.8586 454.728 77.7246 455.325 75.2876C455.964 72.8526 456.339 70.2196 456.451 67.3887L456.503 66.0772C456.612 63.3294 456.443 60.7374 455.998 58.3012C455.595 55.825 454.869 53.6278 453.819 51.7098C452.813 49.7518 451.436 48.1961 449.688 47.0427C447.941 45.8893 445.797 45.2623 443.258 45.1617C440.718 45.0612 438.532 45.5167 436.699 46.5283C434.907 47.5415 433.411 48.9834 432.211 50.8541C431.055 52.6847 430.178 54.8184 429.581 57.255C428.986 59.65 428.634 62.2214 428.525 64.9693ZM504.39 47.7703L501.2 128.333L483.214 127.62L486.918 34.0682L503.593 34.7286L504.39 47.7703ZM546.375 69.5112L546.323 70.8226C546.129 75.7356 545.365 80.2716 544.033 84.4306C542.742 88.5906 540.932 92.1886 538.601 95.2236C536.273 98.2176 533.429 100.524 530.071 102.142C526.756 103.72 522.975 104.426 518.728 104.257C514.607 104.094 511.059 103.12 508.086 101.334C505.112 99.5476 502.644 97.1146 500.681 94.0346C498.762 90.9146 497.256 87.3316 496.166 83.2856C495.075 79.2386 494.287 74.9126 493.802 70.3066L493.938 66.8717C494.799 61.9853 495.935 57.5267 497.345 53.496C498.758 49.4237 500.543 45.9292 502.702 43.0123C504.904 40.0554 507.537 37.8037 510.6 36.2571C513.706 34.7121 517.298 34.0203 521.378 34.1819C525.667 34.3517 529.402 35.3128 532.586 37.0652C535.81 38.8191 538.466 41.2595 540.552 44.3861C542.68 47.5144 544.223 51.2034 545.18 55.4529C546.18 59.7041 546.578 64.3902 546.375 69.5112ZM528.275 70.1079L528.327 68.7965C528.44 65.9237 528.295 63.2701 527.891 60.8355C527.531 58.361 526.866 56.1871 525.898 54.314C524.971 52.4426 523.695 50.9742 522.069 49.9091C520.487 48.8039 518.53 48.2052 516.198 48.1128C513.742 48.0156 511.624 48.3278 509.844 49.0496C508.105 49.7731 506.665 50.8628 505.523 52.3187C504.381 53.7747 503.499 55.5328 502.875 57.5931C502.251 59.6533 501.825 61.9925 501.596 64.6105L501.253 73.2916C501.339 76.3806 501.812 79.1716 502.672 81.6666C503.534 84.1186 504.936 86.0926 506.879 87.5876C508.821 89.0826 511.416 89.8936 514.664 90.0226C517.037 90.1166 519.056 89.6756 520.721 88.6986C522.387 87.6806 523.757 86.2546 524.831 84.4206C525.946 82.5876 526.76 80.4516 527.274 78.0116C527.829 75.5736 528.163 72.9386 528.275 70.1079Z" fill="#DC3545"/>
<defs>
<linearGradient id="paint0_linear_380_16" x1="168" y1="149" x2="544" y2="357" gradientUnits="userSpaceOnUse">
<stop stop-color="#5D05B5"/>
<stop offset="0.58946" stop-color="#9E1E7C"/>
<stop offset="1" stop-color="#DC3545"/>
</linearGradient>
</defs>
</svg>
