<svg width="400" height="100" viewBox="0 0 2934 560" fill="none" xmlns="http://www.w3.org/2000/svg">
<g filter="url(#filter0_d_330_68)">
<path d="M379.271 234.36C450.271 176.36 595.271 -32.6398 368.271 4.36018C269.271 19.3602 124.271 115.36 95.2706 226.36C80.2706 196.36 63.2706 168.36 45.2706 140.36C17.2706 102.36 -13.7294 132.36 16.2706 170.36C105.201 278.03 156.474 411.833 162.271 551.36C169.271 484.36 158.271 402.36 131.271 322.36C144.271 326.36 159.271 328.36 172.271 328.36C218.271 404.36 289.271 469.36 368.271 499.36C441.271 528.36 538.271 511.36 498.271 394.36C477.271 330.36 428.271 274.36 379.271 234.36ZM389.271 31.3602C515.271 17.3602 380.271 174.36 336.271 203.36C295.271 176.36 243.271 152.36 193.271 159.36C229.271 112.36 317.271 40.3602 389.271 31.3602ZM192.271 193.36C226.271 190.36 263.271 209.36 292.271 229.36C264.271 243.36 234.271 251.36 203.271 254.36C157.271 254.36 147.271 197.36 192.271 193.36ZM366.271 437.36C307.271 420.36 251.271 372.36 211.271 324.36C244.271 317.36 277.271 304.36 307.271 286.36C318.271 281.36 329.271 273.36 339.271 266.36C374.271 298.36 411.271 341.36 425.271 390.36C439.271 443.36 401.271 447.36 366.271 437.36Z" fill="#F5A623"/>
<path d="M862.271 102.36H690.271C684.271 102.36 679.271 107.36 679.271 113.36H678.271V383.36C678.271 389.36 683.271 394.36 689.271 394.36C694.271 394.36 699.271 389.36 700.271 383.36V261.36H846.271C852.271 261.36 855.271 256.36 855.271 251.36C855.271 245.36 851.271 242.36 846.271 242.36H699.271V123.36H862.271C868.271 123.36 871.271 118.36 871.271 113.36C871.271 110.36 868.271 106.36 862.271 102.36ZM941.271 88.3604H940.271C935.271 88.3604 932.271 92.3604 932.271 97.3604V382.36C932.271 388.36 936.271 392.36 941.271 392.36C947.271 392.36 950.271 387.36 950.271 382.36V99.3604C950.271 92.3604 947.271 88.3604 941.271 88.3604ZM1190.27 190.36C1190.27 184.36 1186.27 180.36 1181.27 180.36C1175.27 180.36 1172.27 185.36 1172.27 190.36V309.36C1172.27 349.36 1141.27 381.36 1103.27 380.36C1063.27 380.36 1040.27 352.36 1040.27 308.36V190.36C1040.27 184.36 1036.27 180.36 1031.27 180.36C1027.27 180.36 1022.27 185.36 1022.27 190.36V311.36C1022.27 361.36 1052.27 398.36 1101.27 398.36C1131.27 399.36 1159.27 382.36 1173.27 354.36V385.36C1173.27 391.36 1178.27 394.36 1182.27 394.36C1188.27 394.36 1191.27 389.36 1191.27 385.36H1190.27V190.36ZM1355.27 200.36C1359.27 200.36 1364.27 196.36 1364.27 191.36C1364.27 187.36 1359.27 182.36 1355.27 182.36H1292.27V123.36C1292.27 118.36 1287.27 113.36 1283.27 113.36H1282.27C1277.27 113.36 1274.27 118.36 1274.27 123.36V182.36H1252.27C1247.27 182.36 1243.27 185.36 1243.27 190.36C1243.27 195.36 1247.27 200.36 1252.27 200.36H1274.27V338.36C1274.27 377.36 1299.27 396.36 1328.27 396.36C1338.27 396.36 1348.27 394.36 1357.27 391.36C1360.27 389.36 1363.27 386.36 1363.27 382.36C1363.27 377.36 1359.27 374.36 1355.27 374.36C1348.27 376.36 1340.27 377.36 1332.27 377.36C1308.27 377.36 1292.27 366.36 1292.27 336.36V200.36H1355.27ZM1510.27 200.36C1515.27 200.36 1519.27 196.36 1519.27 191.36C1519.27 187.36 1515.27 182.36 1510.27 182.36H1447.27V123.36C1447.27 118.36 1443.27 113.36 1438.27 113.36H1437.27C1432.27 113.36 1429.27 118.36 1429.27 123.36V182.36H1407.27C1403.27 182.36 1398.27 185.36 1398.27 190.36C1398.27 195.36 1403.27 200.36 1407.27 200.36H1429.27V338.36C1429.27 377.36 1454.27 396.36 1484.27 396.36C1493.27 396.36 1503.27 394.36 1512.27 391.36C1516.27 389.36 1518.27 386.36 1518.27 382.36C1518.27 377.36 1515.27 374.36 1510.27 374.36C1503.27 376.36 1495.27 377.36 1487.27 377.36C1463.27 377.36 1447.27 366.36 1447.27 336.36V200.36H1510.27ZM1647.27 176.36C1594.27 176.36 1554.27 224.36 1554.27 287.36V288.36C1554.27 355.36 1598.27 399.36 1651.27 399.36C1679.27 400.36 1708.27 388.36 1727.27 365.36C1730.27 363.36 1731.27 360.36 1731.27 358.36C1731.27 353.36 1726.27 348.36 1722.27 348.36L1716.27 350.36C1708.34 359.61 1698.53 367.067 1687.49 372.239C1676.46 377.411 1664.45 380.179 1652.27 380.36C1613.27 380.36 1578.27 349.36 1574.27 297.36H1730.27C1734.27 297.36 1739.27 292.36 1739.27 287.36C1739.27 224.36 1703.27 176.36 1647.27 176.36ZM1573.27 277.36C1576.27 231.36 1607.27 195.36 1646.27 195.36C1691.27 195.36 1715.27 234.36 1717.27 277.36H1573.27ZM1892.27 179.36C1856.27 182.36 1826.27 207.36 1813.27 243.36V191.36C1813.27 187.36 1808.27 182.36 1804.27 182.36C1798.27 182.36 1795.27 185.36 1794.27 191.36V387.36C1794.27 392.36 1798.27 397.36 1803.27 397.36C1808.27 397.36 1812.27 393.36 1813.27 387.36V309.36C1813.27 240.36 1850.27 207.36 1892.27 202.36H1893.27C1899.27 202.36 1902.27 196.36 1902.27 191.36C1902.27 184.36 1898.27 179.36 1892.27 179.36Z" fill="black"/>
<path d="M2229.27 168.36C2216.27 168.36 2204.27 178.36 2201.27 192.36L2167.27 306.36L2134.27 192.36C2131.27 178.36 2118.27 167.36 2103.27 167.36H2100.27C2085.27 167.36 2072.27 176.36 2069.27 192.36L2036.27 304.36L2004.27 191.36C2000.27 178.36 1989.27 167.36 1975.27 167.36H1974.27C1959.27 167.36 1948.27 180.36 1948.27 196.36L1950.27 211.36L2001.27 368.36C2005.27 384.36 2018.27 395.36 2034.27 396.36H2036.27C2051.27 396.36 2063.27 385.36 2068.27 369.36L2101.27 257.36L2134.27 369.36C2138.27 385.36 2151.27 396.36 2166.27 396.36H2169.27C2185.27 396.36 2198.27 385.36 2202.27 368.36L2253.27 209.36L2256.27 197.36V196.36C2256.27 180.36 2244.27 168.36 2229.27 168.36ZM2376.27 168.36C2353.27 167.36 2331.27 172.36 2309.27 179.36C2300.27 183.36 2295.27 192.36 2295.27 203.36C2295.27 218.36 2306.27 229.36 2320.27 228.36C2322.27 228.36 2325.27 228.36 2328.27 226.36C2341.27 222.36 2355.27 220.36 2369.27 220.36C2399.27 220.36 2414.27 234.36 2414.27 261.36V264.36C2398.27 258.36 2380.27 256.36 2363.27 256.36C2314.27 256.36 2280.27 279.36 2280.27 328.36C2280.27 371.36 2313.27 396.36 2351.27 396.36C2375.27 397.36 2398.27 386.36 2414.27 368.36C2415.27 384.36 2427.27 395.36 2442.27 395.36C2458.27 395.36 2471.27 381.36 2471.27 364.36V264.36C2472.27 239.36 2464.27 213.36 2448.27 194.36C2431.27 178.36 2408.27 168.36 2376.27 168.36ZM2415.27 313.36C2415.27 337.36 2395.27 352.36 2368.27 351.36C2349.27 351.36 2336.27 341.36 2336.27 324.36V323.36C2336.27 304.36 2352.27 292.36 2377.27 292.36C2389.27 292.36 2403.27 296.36 2415.27 301.36V313.36ZM2674.27 167.36C2662.27 167.36 2650.27 175.36 2647.27 189.36L2601.27 318.36L2557.27 190.36C2553.27 176.36 2542.27 167.36 2528.27 167.36C2513.27 167.36 2501.27 179.36 2499.27 196.36C2499.27 201.36 2501.27 206.36 2503.27 211.36L2567.27 368.36C2571.27 384.36 2584.27 395.36 2600.27 396.36H2604.27C2618.27 395.36 2632.27 385.36 2638.27 369.36L2700.27 212.36L2703.27 197.36V196.36C2703.27 180.36 2691.27 167.36 2674.27 167.36ZM2829.27 166.36C2768.27 166.36 2726.27 218.36 2726.27 281.36V291.36C2728.27 352.36 2778.27 399.36 2835.27 396.36C2861.27 396.36 2886.27 387.36 2907.27 369.36C2913.27 364.36 2915.27 358.36 2915.27 351.36V350.36C2915.27 336.36 2905.27 325.36 2892.27 325.36C2887.27 325.36 2882.27 326.36 2878.27 330.36C2866.62 340.397 2851.65 345.743 2836.27 345.36C2811.27 346.36 2789.27 328.36 2786.27 301.36H2903.27C2918.27 300.36 2930.27 286.36 2929.27 270.36V265.36C2929.27 211.36 2884.27 164.36 2829.27 166.36ZM2784.27 264.36C2789.27 235.36 2805.27 217.36 2829.27 217.36C2853.27 217.36 2869.27 236.36 2872.27 264.36H2784.27Z" fill="black" stroke="black"/>
</g>
<defs>
<filter id="filter0_d_330_68" x="0" y="0" width="2933.83" height="559.36" filterUnits="userSpaceOnUse" color-interpolation-filters="sRGB">
<feFlood flood-opacity="0" result="BackgroundImageFix"/>
<feColorMatrix in="SourceAlpha" type="matrix" values="0 0 0 0 0 0 0 0 0 0 0 0 0 0 0 0 0 0 127 0" result="hardAlpha"/>
<feOffset dy="4"/>
<feGaussianBlur stdDeviation="2"/>
<feComposite in2="hardAlpha" operator="out"/>
<feColorMatrix type="matrix" values="0 0 0 0 0 0 0 0 0 0 0 0 0 0 0 0 0 0 0.25 0"/>
<feBlend mode="normal" in2="BackgroundImageFix" result="effect1_dropShadow_330_68"/>
<feBlend mode="normal" in="SourceGraphic" in2="effect1_dropShadow_330_68" result="shape"/>
</filter>
</defs>
</svg>
