<svg width="110" height="35" viewBox="0 0 150 50" fill="#616161" xmlns="http://www.w3.org/2000/svg">
<path d="M144.444 0H5.55556C2.50004 0 0 2.8125 0 6.25003V43.75C0 47.1875 2.49999 50 5.55556 50H144.444C147.5 50 150 47.1875 150 43.75V6.25003C150 2.8125 147.5 0 144.444 0H144.444ZM144.444 0.999968C147.018 0.999968 149.111 3.35551 149.111 6.25003V43.75C149.111 46.645 147.018 49.0005 144.444 49.0005H5.55556C2.9827 49.0005 0.888898 46.645 0.888898 43.75V6.25003C0.888898 3.35551 2.98265 1.00002 5.55556 1.00002H144.444"/>
<path d="M52.6872 12.8043C52.6872 13.8516 52.4115 14.6855 51.8594 15.3077C51.2322 16.0474 50.4149 16.4176 49.4101 16.4176C48.4479 16.4176 47.6298 16.0426 46.957 15.2915C46.283 14.5411 45.9467 13.6104 45.9467 12.5001C45.9467 11.3892 46.283 10.4591 46.957 9.70801C47.6298 8.95758 48.4479 8.58203 49.4101 8.58203C49.8876 8.58203 50.3447 8.68708 50.7787 8.89657C51.2127 9.10657 51.5608 9.38532 51.8212 9.73441L51.2352 10.3941C50.7939 9.80081 50.1862 9.50442 49.4101 9.50442C48.7084 9.50442 48.1016 9.78182 47.5895 10.337C47.0772 10.8927 46.8212 11.6133 46.8212 12.5001C46.8212 13.3868 47.0772 14.1074 47.5895 14.6632C48.1016 15.2183 48.7083 15.4957 49.4101 15.4957C50.1546 15.4957 50.7752 15.2168 51.2721 14.6583C51.5947 14.2944 51.7812 13.7887 51.8311 13.1392H49.4101V12.2383H52.6406C52.6719 12.4342 52.6871 12.6222 52.6871 12.8043"/>
<path d="M52.6872 12.8043H52.576C52.5751 13.8277 52.3095 14.6226 51.7808 15.2193L51.7796 15.2203L51.7791 15.2213C51.1719 15.9356 50.3914 16.2911 49.4101 16.2926C48.4736 16.2911 47.6897 15.9317 47.0351 15.2032C46.382 14.4732 46.059 13.582 46.0578 12.5001C46.059 11.4176 46.382 10.5269 47.0351 9.79744C47.6897 9.06842 48.4736 8.70854 49.4101 8.70702C49.8732 8.70702 50.3142 8.80871 50.7348 9.01129C51.1558 9.21544 51.4883 9.48296 51.7361 9.81508L51.8212 9.73441L51.7427 9.64604L51.1567 10.3061L51.2352 10.3941L51.3208 10.3141C50.8589 9.69143 50.2105 9.37757 49.4101 9.37942C48.6823 9.37841 48.0421 9.67098 47.5125 10.2472C46.9779 10.8253 46.7092 11.5865 46.7101 12.5001C46.7092 13.4137 46.9779 14.1748 47.5125 14.753C48.0421 15.3292 48.6823 15.6217 49.4101 15.6207C50.1792 15.6222 50.8347 15.3287 51.3507 14.7467C51.6953 14.3579 51.8907 13.8194 51.9419 13.1499L51.9522 13.0142H49.5212V12.3633H52.6407V12.2383L52.5312 12.2603C52.5616 12.4498 52.576 12.6299 52.576 12.8043H52.7982C52.7982 12.6143 52.7826 12.419 52.75 12.216L52.7335 12.1133H49.299V13.2642H51.8311V13.1392L51.7205 13.1285C51.6715 13.7574 51.4935 14.2311 51.1936 14.57C50.7162 15.1051 50.1302 15.3692 49.4101 15.3707C48.7344 15.3697 48.1611 15.1079 47.6667 14.5733C47.1771 14.0406 46.9336 13.3604 46.9323 12.5001C46.9336 11.6397 47.1771 10.9595 47.6667 10.4268C48.1611 9.89216 48.7344 9.63042 49.4101 9.62941C50.1615 9.63143 50.7288 9.91069 51.1503 10.4747L51.2284 10.5792L51.8998 9.82283L51.9718 9.74182L51.9063 9.6543C51.6333 9.28819 51.2696 8.99758 50.8225 8.78185C50.3746 8.56546 49.9019 8.45703 49.4101 8.45703C48.4223 8.45608 47.5699 8.84668 46.8785 9.61969C46.1845 10.3912 45.8347 11.3609 45.8356 12.5001C45.8347 13.6387 46.1845 14.609 46.8789 15.3809C47.5699 16.1534 48.4223 16.5436 49.4101 16.5426C50.4388 16.5436 51.2922 16.1592 51.9397 15.3941L51.8594 15.3077L51.9379 15.3961C52.5135 14.7491 52.799 13.8751 52.7983 12.8043H52.6871H52.6872ZM57.8086 9.67143H54.7726V12.0494H57.5105V12.9507H54.7726V15.3287H57.8086V16.25H53.9167V8.75006H57.8086V9.67143"/>
<path d="M57.8086 9.67137V9.54638H54.6615V12.1744H57.3994V12.8253L54.6614 12.8256V15.4536H57.6975V16.125H54.0278V8.87499H57.6975V9.67137H57.8086V9.54638V9.67137H57.9197V8.625H53.8056V16.375H57.9197V15.2036H54.8837V13.0756H57.6216V11.9244H54.8837V9.79637H57.9197V9.67137H57.8086V9.67137ZM61.421 16.25H60.5638V9.67132H58.7018V8.74994H63.283V9.67132H61.421V16.2499"/>
<path d="M61.421 16.25V16.125H60.6749V9.54638H58.8129V8.87505H63.1719V9.54638H61.3099V16.25H61.421V16.125V16.25H61.5321V9.79637H63.3941V8.625H58.5907V9.79631H60.4527V16.3749H61.5321V16.2499H61.421V16.25ZM66.5977 16.25V8.74994H67.454V16.2499H66.5977"/>
<path d="M66.5977 16.25H66.7088V8.87499H67.3429V16.125H66.5977V16.25H66.7088H66.5977V16.375H67.5651V8.625H66.4866V16.375H66.5977V16.25V16.25ZM71.2539 16.25H70.3967V9.67132H68.5348V8.74994H73.1159V9.67132H71.2539V16.2499"/>
<path d="M71.2539 16.2501V16.1251H70.5078V9.54644H68.6459V8.87511H73.0048V9.54644H71.1428V16.25H71.2539V16.1251V16.25H71.365V9.79643H73.227V8.62506H68.4237V9.79637H70.2856V16.375H71.365V16.25H71.2539V16.2501ZM77.5326 14.653C78.026 15.2149 78.6298 15.4956 79.3438 15.4956C80.0578 15.4956 80.6619 15.2149 81.1546 14.653C81.6485 14.091 81.8959 13.3726 81.8959 12.5001C81.8959 11.6276 81.6485 10.9092 81.1546 10.3472C80.6619 9.7852 80.0578 9.50442 79.3438 9.50442C78.6298 9.50442 78.026 9.7852 77.5326 10.3472C77.0399 10.9092 76.7926 11.6276 76.7926 12.5001C76.7926 13.3726 77.0399 14.091 77.5326 14.653ZM81.7882 15.2808C81.1328 16.039 80.3177 16.4176 79.3438 16.4176C78.3689 16.4176 77.5542 16.039 76.9002 15.2808C76.2444 14.5234 75.918 13.5963 75.918 12.5001C75.918 11.4038 76.2444 10.4765 76.9002 9.7193C77.5543 8.9609 78.3689 8.58203 79.3438 8.58203C80.3126 8.58203 81.1255 8.96292 81.7839 9.72419C82.4415 10.4854 82.7705 11.4106 82.7705 12.5001C82.7705 13.5963 82.4423 14.5234 81.7882 15.2808Z"/>
<path d="M77.5326 14.653L77.4536 14.7408C77.9654 15.3253 78.6038 15.6222 79.3438 15.6207C80.0834 15.6222 80.7227 15.3253 81.2336 14.7408C81.7487 14.1558 82.0078 13.399 82.007 12.5001C82.0078 11.6012 81.7487 10.8443 81.2336 10.2593C80.7227 9.6748 80.0834 9.37796 79.3438 9.37942C78.6038 9.37796 77.9654 9.6748 77.4536 10.2593C76.9397 10.8443 76.6801 11.6012 76.6815 12.5001C76.6801 13.3989 76.9397 14.1558 77.4536 14.7408L77.5326 14.653L77.6117 14.565C77.1403 14.0255 76.9046 13.3467 76.9037 12.5001C76.9046 11.6535 77.1403 10.9747 77.6116 10.4351C78.0873 9.89558 78.6554 9.63093 79.3438 9.62947C80.0317 9.63093 80.6012 9.89558 81.0756 10.4351C81.5478 10.9747 81.7835 11.6535 81.7843 12.5001C81.7835 13.3467 81.5478 14.0255 81.0756 14.565C80.6012 15.1046 80.0318 15.3692 79.3438 15.3706C78.6554 15.3692 78.0873 15.1046 77.6116 14.565L77.5326 14.653ZM81.7883 15.2808L81.7088 15.194C81.0717 15.9283 80.2926 16.2911 79.3438 16.2926C78.3946 16.2911 77.6155 15.9283 76.9796 15.194L76.9766 15.19L76.9796 15.194C76.3438 14.4571 76.0301 13.5684 76.0292 12.5001C76.0301 11.4317 76.3438 10.543 76.9796 9.80621C77.6155 9.07179 78.3946 8.70854 79.3438 8.70708C80.2865 8.70854 81.0638 9.07331 81.7045 9.81154C82.3425 10.5518 82.658 11.439 82.6594 12.5001C82.658 13.5684 82.3434 14.4571 81.7088 15.194L81.7883 15.2808L81.8682 15.3677C82.5417 14.5894 82.8824 13.6241 82.8816 12.5001C82.8824 11.3824 82.5404 10.4191 81.8637 9.63733C81.1867 8.85253 80.3386 8.45569 79.3438 8.45703C78.3438 8.45569 77.4932 8.85067 76.8204 9.63245V9.63188C76.1455 10.4107 75.806 11.376 75.8069 12.5001C75.806 13.6241 76.1455 14.5894 76.8204 15.3682L76.8234 15.3717L76.8204 15.3677C77.4932 16.1494 78.3438 16.5436 79.3438 16.5426C80.3434 16.5436 81.1941 16.1494 81.8682 15.3677L81.7883 15.2808V15.2808ZM83.9727 16.2501V8.75H85.0153L88.2553 14.5845H88.2922L88.2553 13.1391V8.75H89.1125V16.25H88.2184L84.8286 10.1328H84.7917L84.8286 11.5786V16.25H83.9727"/>
<path d="M83.9727 16.25H84.0838V8.87499H84.9536L88.1936 14.7095H88.4062L88.3663 13.1373V8.87505H89.0013V16.125H88.28L84.8903 10.0078H84.6776L84.7175 11.5806V16.125H83.9727V16.25H84.0838H83.9727V16.375H84.9397V11.5766L84.9028 10.1294L84.7917 10.1328V10.2578H84.8286V10.1328L84.7344 10.1992L88.1567 16.375H89.2236V8.625H88.1442V13.1406L88.181 14.5878L88.2922 14.5845V14.4595H88.2552V14.5845L88.3495 14.5181L85.0768 8.625H83.8616V16.375H83.9728V16.25L83.9727 16.25ZM118.818 37.5H120.891V21.8735H118.818L118.818 37.5ZM137.492 27.5026L135.116 34.2774H135.044L132.578 27.5025H130.344L134.043 36.9716L131.934 42.2388H134.098L139.798 27.5025L137.492 27.5026ZM125.734 35.7252C125.054 35.7252 124.108 35.3433 124.108 34.398C124.108 33.1919 125.288 32.7295 126.306 32.7295C127.218 32.7295 127.646 32.9506 128.2 33.2525C128.039 34.6997 126.931 35.7252 125.734 35.7252V35.7252ZM125.984 27.1607C124.483 27.1607 122.929 27.9047 122.286 29.5533L124.126 30.4175C124.519 29.5533 125.251 29.2715 126.02 29.2715C127.092 29.2715 128.182 29.9956 128.2 31.2823V31.4429C127.824 31.2017 127.021 30.8399 126.038 30.8399C124.054 30.8399 122.034 32.0659 122.034 34.3579C122.034 36.4488 123.661 37.7959 125.483 37.7959C126.878 37.7959 127.646 37.0923 128.129 36.2681H128.2V37.4741H130.201V31.4829C130.201 28.709 128.361 27.1607 125.984 27.1607V27.1607ZM113.171 29.4047H110.222V24.0484H113.171C114.721 24.0484 115.601 25.4922 115.601 26.7265C115.601 27.9375 114.721 29.4047 113.171 29.4047ZM113.118 21.8735H108.15V37.5H110.222V31.5796H113.118C115.416 31.5796 117.674 29.708 117.674 26.7265C117.674 23.7451 115.416 21.8735 113.118 21.8735V21.8735ZM86.0278 35.728C84.5955 35.728 83.3963 34.3789 83.3963 32.5259C83.3963 30.6534 84.5955 29.2837 86.0278 29.2837C87.4419 29.2837 88.5517 30.6534 88.5517 32.5259C88.5517 34.3789 87.4419 35.728 86.0278 35.728H86.0278ZM88.4084 28.3775H88.3368C87.8716 27.7534 86.9761 27.1895 85.8486 27.1895C83.4857 27.1895 81.3199 29.5254 81.3199 32.5259C81.3199 35.5064 83.4856 37.8223 85.8486 37.8223C86.9761 37.8223 87.8716 37.2583 88.3368 36.6142H88.4084V37.3794C88.4084 39.4136 87.4419 40.501 85.8846 40.501C84.6137 40.501 83.826 39.4736 83.5035 38.6079L81.6958 39.4536C82.2149 40.8633 83.5933 42.5953 85.8846 42.5953C88.319 42.5953 90.3776 40.9839 90.3776 37.0571V27.5118H88.4084V28.3775ZM91.8095 37.5H93.8859V21.873H91.8095V37.5ZM96.947 32.3448C96.8932 30.2905 98.3611 29.2436 99.4171 29.2436C100.241 29.2436 100.939 29.7065 101.171 30.3717L96.947 32.3448ZM103.391 30.5727C102.998 29.3842 101.798 27.1895 99.3455 27.1895C96.9111 27.1895 94.8885 29.3442 94.8885 32.5059C94.8885 35.4864 96.8932 37.8223 99.5781 37.8223C101.744 37.8223 102.998 36.332 103.517 35.4662L101.906 34.2577C101.369 35.144 100.634 35.728 99.5781 35.728C98.5221 35.728 97.7705 35.1841 97.2869 34.1171L103.606 31.1768L103.391 30.5727ZM53.0487 28.8208V31.0761H57.8459C57.7027 32.3448 57.3268 33.271 56.7539 33.9155C56.056 34.7011 54.964 35.5669 53.0486 35.5669C50.095 35.5669 47.786 32.8886 47.786 29.5659C47.786 26.2432 50.095 23.5645 53.0487 23.5645C54.6419 23.5645 55.8051 24.2695 56.6645 25.1757L58.0786 23.585C56.8794 22.2959 55.286 21.3092 53.0487 21.3092C49.003 21.3092 45.602 25.0147 45.602 29.5659C45.602 34.1171 49.003 37.8223 53.0487 37.8223C55.2327 37.8223 56.8794 37.0171 58.168 35.5064C59.4927 34.0161 59.9046 31.9219 59.9046 30.2305C59.9046 29.7065 59.8689 29.2236 59.7969 28.8208H53.0487ZM65.3586 35.728C63.9262 35.728 62.691 34.3989 62.691 32.5059C62.691 30.5927 63.9262 29.2837 65.3586 29.2837C66.7903 29.2837 68.0256 30.5927 68.0256 32.5059C68.0256 34.3989 66.7903 35.728 65.3586 35.728ZM65.3586 27.1895C62.7448 27.1895 60.6146 29.4247 60.6146 32.5059C60.6146 35.5669 62.7448 37.8223 65.3586 37.8223C67.9718 37.8223 70.102 35.5669 70.102 32.5059C70.102 29.4247 67.9718 27.1895 65.3586 27.1895ZM75.7065 35.728C74.2748 35.728 73.0394 34.3989 73.0394 32.5059C73.0394 30.5927 74.2748 29.2837 75.7066 29.2837C77.1385 29.2837 78.3737 30.5927 78.3737 32.5059C78.3737 34.3989 77.1385 35.728 75.7066 35.728H75.7065ZM75.7065 27.1895C73.0929 27.1895 70.9631 29.4247 70.9631 32.5059C70.9631 35.5669 73.0929 37.8223 75.7066 37.8223C78.3199 37.8223 80.4502 35.5669 80.4502 32.5059C80.4502 29.4247 78.3199 27.1895 75.7066 27.1895H75.7065Z"/>
<path d="M36.2512 23.8546L31.0564 20.5133L26.7833 25.118L30.6891 29.3248L36.2512 25.7448C36.4004 25.6497 36.5242 25.5123 36.61 25.3466C36.6959 25.1808 36.7407 24.9927 36.74 24.8013C36.7412 24.6094 36.6966 24.4207 36.6108 24.2543C36.5249 24.0879 36.4008 23.95 36.2512 23.8546ZM30.1746 19.9453L24.4581 16.2667L11.9303 9.10999L26.0801 24.359L30.1746 19.9453ZM12.1376 40.9L24.4795 33.3216L29.8073 29.8928L26.0801 25.8769L12.1376 40.9ZM11.0943 9.72733L11.08 40.5229L25.3756 25.118L11.0943 9.72733Z"/>
</svg>
