<svg width="576" height="456" viewBox="0 0 2001 1557" fill="none" xmlns="http://www.w3.org/2000/svg">
<path d="M1960.59 1534.9V1538.9H1964.32C1965.02 1538.91 1965.71 1538.74 1966.32 1538.39C1966.56 1538.22 1966.76 1537.99 1966.89 1537.72C1967.02 1537.45 1967.08 1537.16 1967.07 1536.86C1967.08 1536.57 1967.02 1536.28 1966.89 1536.02C1966.76 1535.76 1966.56 1535.53 1966.32 1535.37C1965.72 1535.01 1965.02 1534.83 1964.32 1534.86H1960.59V1534.9ZM1964.36 1532.07C1965.96 1531.97 1967.54 1532.43 1968.84 1533.37C1969.36 1533.8 1969.77 1534.34 1970.05 1534.95C1970.32 1535.57 1970.44 1536.24 1970.41 1536.91C1970.43 1537.49 1970.33 1538.07 1970.12 1538.6C1969.9 1539.14 1969.57 1539.62 1969.15 1540.02C1968.15 1540.89 1966.89 1541.41 1965.57 1541.51L1970.57 1547.21H1966.72L1962.12 1541.55H1960.63V1547.21H1957.41V1532.08H1964.41L1964.36 1532.07ZM1963.36 1552.43C1965.05 1552.45 1966.72 1552.11 1968.27 1551.43C1969.76 1550.79 1971.12 1549.87 1972.27 1548.72C1973.42 1547.57 1974.34 1546.22 1974.98 1544.72C1976.29 1541.55 1976.29 1537.99 1974.98 1534.82C1974.33 1533.33 1973.41 1531.97 1972.27 1530.82C1971.12 1529.67 1969.76 1528.75 1968.27 1528.11C1966.71 1527.47 1965.04 1527.15 1963.36 1527.17C1961.65 1527.15 1959.95 1527.47 1958.36 1528.11C1956.83 1528.74 1955.45 1529.66 1954.27 1530.82C1952.5 1532.64 1951.31 1534.93 1950.83 1537.42C1950.36 1539.91 1950.62 1542.48 1951.6 1544.82C1952.21 1546.32 1953.12 1547.68 1954.27 1548.82C1955.45 1549.98 1956.84 1550.9 1958.36 1551.53C1959.94 1552.21 1961.64 1552.55 1963.36 1552.53V1552.43ZM1963.36 1523.53C1967.76 1523.53 1971.98 1525.25 1975.11 1528.33C1976.62 1529.81 1977.83 1531.57 1978.65 1533.52C1979.51 1535.52 1979.95 1537.67 1979.95 1539.85C1979.95 1542.02 1979.51 1544.17 1978.65 1546.17C1977.81 1548.11 1976.6 1549.87 1975.11 1551.36C1973.58 1552.83 1971.79 1554.02 1969.84 1554.86C1967.79 1555.73 1965.59 1556.17 1963.36 1556.16C1961.11 1556.18 1958.88 1555.73 1956.8 1554.86C1954.83 1554.04 1953.03 1552.85 1951.49 1551.36C1950 1549.81 1948.81 1547.99 1948 1546C1947.15 1544 1946.71 1541.85 1946.71 1539.68C1946.71 1537.5 1947.15 1535.35 1948 1533.35C1948.83 1531.4 1950.03 1529.64 1951.54 1528.16C1953.06 1526.65 1954.86 1525.46 1956.85 1524.66C1958.93 1523.79 1961.16 1523.34 1963.41 1523.36L1963.36 1523.53ZM432.161 1465.1C432.161 1436.25 451.061 1412.55 481.951 1412.55C511.471 1412.55 531.391 1435.23 531.391 1465.1C531.391 1494.97 511.471 1517.65 481.951 1517.65C451.061 1517.65 432.161 1493.95 432.161 1465.1V1465.1ZM565.041 1465.1V1383H529.351V1403C518.031 1388.22 500.861 1378.95 477.511 1378.95C431.511 1378.95 395.411 1415.03 395.411 1465.14C395.411 1515.25 431.491 1551.33 477.511 1551.33C500.851 1551.33 518.031 1542.05 529.351 1527.28V1547.21H565.001V1465.1H565.041ZM1770.96 1465.1C1770.96 1436.25 1789.86 1412.55 1820.76 1412.55C1850.31 1412.55 1870.2 1435.23 1870.2 1465.1C1870.2 1494.97 1850.31 1517.65 1820.76 1517.65C1789.87 1517.65 1770.96 1493.95 1770.96 1465.1ZM1903.88 1465.1V1317.1H1868.16V1403C1856.84 1388.22 1839.67 1378.95 1816.32 1378.95C1770.32 1378.95 1734.22 1415.03 1734.22 1465.14C1734.22 1515.25 1770.3 1551.33 1816.32 1551.33C1839.67 1551.33 1856.84 1542.05 1868.16 1527.28V1547.21H1903.88V1465.1ZM1008 1410.86C1031 1410.86 1045.77 1425.28 1049.54 1450.67H964.381C968.191 1426.97 982.581 1410.86 1008.01 1410.86H1008ZM1008.72 1378.86C960.621 1378.86 926.971 1413.86 926.971 1465.05C926.971 1517.24 961.971 1551.24 1011.11 1551.24C1035.83 1551.24 1058.47 1545.07 1078.39 1528.24L1060.9 1501.79C1047.14 1512.79 1029.62 1518.96 1013.15 1518.96C990.151 1518.96 969.211 1508.31 964.061 1478.76H1085.93C1086.28 1474.32 1086.64 1469.84 1086.64 1465.04C1086.28 1413.87 1054.64 1378.85 1008.7 1378.85L1008.72 1378.86ZM1439.6 1465.04C1439.6 1436.19 1458.5 1412.49 1489.39 1412.49C1518.91 1412.49 1538.83 1435.17 1538.83 1465.04C1538.83 1494.91 1518.91 1517.59 1489.39 1517.59C1458.5 1517.59 1439.59 1493.89 1439.59 1465.04H1439.6ZM1572.47 1465.04V1383H1536.8V1403C1525.44 1388.22 1508.31 1378.95 1484.96 1378.95C1438.96 1378.95 1402.86 1415.03 1402.86 1465.14C1402.86 1515.25 1438.94 1551.33 1484.96 1551.33C1508.31 1551.33 1525.44 1542.05 1536.8 1527.28V1547.21H1572.48V1465.1L1572.47 1465.04ZM1238.05 1465.04C1238.05 1514.83 1272.71 1551.23 1325.61 1551.23C1350.33 1551.23 1366.8 1545.73 1384.61 1531.66L1367.47 1502.81C1354.07 1512.44 1340 1517.59 1324.47 1517.59C1295.98 1517.24 1275.03 1496.64 1275.03 1465.04C1275.03 1433.44 1295.98 1412.85 1324.47 1412.49C1339.96 1412.49 1354.03 1417.64 1367.47 1427.27L1384.61 1398.42C1366.77 1384.35 1350.3 1378.85 1325.61 1378.85C1272.71 1378.85 1238.05 1415.24 1238.05 1465.04V1465.04ZM1698.15 1378.85C1677.56 1378.85 1664.15 1388.48 1654.88 1402.9V1383H1619.51V1547.12H1655.24V1455.12C1655.24 1427.96 1666.91 1412.87 1690.24 1412.87C1697.88 1412.76 1705.47 1414.16 1712.56 1417L1723.56 1383.36C1715.66 1380.25 1705.36 1378.88 1698.13 1378.88L1698.15 1378.85ZM741.491 1396.05C724.321 1384.73 700.661 1378.88 674.561 1378.88C632.981 1378.88 606.211 1398.81 606.211 1431.42C606.211 1458.18 626.141 1474.69 662.841 1479.84L679.701 1482.24C699.271 1484.99 708.511 1490.14 708.511 1499.41C708.511 1512.1 695.511 1519.34 671.101 1519.34C646.381 1519.34 628.541 1511.44 616.511 1502.17L599.741 1530C619.311 1544.42 644.031 1551.3 670.801 1551.3C718.201 1551.3 745.671 1528.98 745.671 1497.73C745.671 1468.88 724.051 1453.79 688.331 1448.64L671.511 1446.2C656.061 1444.2 643.681 1441.09 643.681 1430.09C643.681 1418.09 655.351 1410.87 674.931 1410.87C695.881 1410.87 716.161 1418.77 726.101 1424.94L741.551 1396.09L741.491 1396.05ZM1202 1378.91C1181.41 1378.91 1168 1388.54 1158.77 1402.96V1383H1123.4V1547.12H1159.09V1455.12C1159.09 1427.96 1170.76 1412.87 1194.09 1412.87C1201.73 1412.76 1209.32 1414.16 1216.41 1417L1227.41 1383.36C1219.51 1380.25 1209.21 1378.88 1201.98 1378.88L1202 1378.91ZM897.441 1383H839.081V1333.21H803.001V1383H769.711V1415.62H803.001V1490.49C803.001 1528.57 817.781 1551.25 860.001 1551.25C875.491 1551.25 893.331 1546.45 904.651 1538.56L894.341 1508C883.691 1514.17 872.021 1517.28 862.741 1517.28C844.901 1517.28 839.081 1506.28 839.081 1489.81V1415.65H897.441V1383ZM363.851 1547.16V1444.16C363.851 1405.37 339.131 1379.27 299.281 1378.92C278.331 1378.57 256.721 1385.09 241.591 1408.12C230.271 1389.92 212.431 1378.92 187.351 1378.92C169.821 1378.92 152.691 1384.07 139.281 1403.29V1383H103.561V1547.12H139.561V1456.12C139.561 1427.63 155.361 1412.49 179.761 1412.49C203.461 1412.49 215.451 1427.94 215.451 1455.76V1547.1H251.531V1456.1C251.531 1427.61 268.001 1412.47 291.691 1412.47C316.061 1412.47 327.691 1427.92 327.691 1455.74V1547.08L363.851 1547.16Z" fill="#231F20"/>
<path d="M1980.94 1001.22V977.22H1974.69L1967.46 993.69L1960.27 977.22H1954V1001.22H1958.44V983.14L1965.2 998.74H1969.8L1976.56 983.1V1001.22H1980.96H1980.94ZM1941.29 1001.22V981.33H1949.29V977.28H1928.85V981.33H1936.85V1001.22H1941.25H1941.29Z" fill="#F79410"/>
<path d="M1270.57 1104.15H729.71V132.15H1270.58L1270.57 1104.15Z" fill="#FF5F00"/>
<path d="M764 618.171C764 421.001 856.32 245.361 1000.08 132.171C891.261 46.3654 756.669 -0.204087 618.09 0.000672347C276.72 0.000672347 0 276.761 0 618.171C0 959.581 276.72 1236.34 618.09 1236.34C756.672 1236.55 891.268 1189.98 1000.09 1104.17C856.34 991.001 764 815.351 764 618.171Z" fill="#EB001B"/>
<path d="M2000.25 618.171C2000.25 959.581 1723.53 1236.34 1382.16 1236.34C1243.56 1236.54 1108.95 1189.98 1000.11 1104.17C1143.91 990.981 1236.23 815.351 1236.23 618.171C1236.23 420.991 1143.91 245.361 1000.11 132.171C1108.95 46.368 1243.56 -0.200498 1382.15 0.000648895C1723.52 0.000648895 2000.24 276.761 2000.24 618.171" fill="#F79E1B"/>
</svg>
