<svg width="576" height="456" viewBox="0 0 120 84" fill="none" xmlns="http://www.w3.org/2000/svg">
<path d="M17.7354 13.4438V33.6703H18.722V15.2818H46.3306V48.0103H47.3173V13.4438H17.7354Z" fill="#4A555F"/>
<path d="M34.9014 17.7407V26.2751L33.6384 23.8184L32.5234 26.2751L31.3722 23.8184L30.1521 26.2751V17.7407H20.042V36.3305L29.5897 45.5939C31.4611 47.4074 32.6254 50.973 32.6254 54.9002C32.6265 56.083 32.5198 57.2576 32.3097 58.3738H36.1084C36.596 58.0194 37.0745 57.6228 37.5424 57.1854L37.6411 57.0995L45.0115 51.316V17.7407H34.9014Z" fill="#F58E6F"/>
<path d="M29.6591 13.4438V27.3535L31.3623 24.3452L32.5333 26.5284L33.66 24.3457L35.3938 27.3033V13.4438H29.6591ZM34.4071 23.1278L33.6164 21.779L32.5198 23.903L31.3809 21.7797L30.6457 23.078V15.2818H34.4071V23.1278ZM65.2266 46.8227C64.1956 42.5694 61.577 40.6569 59.2648 42.4696L38.0574 59.0999C34.6621 62.2708 31.554 62.8183 29.043 62.3267C29.1589 62.2148 29.2722 62.0938 29.3825 61.9638C30.6916 60.4235 31.4731 57.7837 31.4731 54.9027C31.4731 51.7781 30.5475 48.9391 29.0575 47.4936L13.8581 32.7514H0V34.5893H13.6166L28.6021 49.124C29.7645 50.2515 30.4865 52.4659 30.4865 54.9027C30.4865 57.1494 29.8769 59.2084 28.8555 60.4099C28.0423 61.3672 27.0762 61.6545 26.1653 61.2455C26.1029 61.2105 26.0413 61.1753 25.9803 61.1398C25.3519 60.6461 24.7292 60.1275 24.1126 59.5844L12.5596 49.3484L12.1356 51.008L23.6131 61.1773L23.6889 61.2443L25.0459 62.4466C25.3234 62.6928 25.6136 62.8859 25.912 63.023C28.8698 64.6716 33.3802 65.5238 38.4697 60.7681L59.6477 44.1635C61.4626 42.7419 63.5186 44.2408 64.3273 47.579C65.1318 50.8979 64.3826 54.7458 62.6211 56.3392L37.9426 78.6605C35.5246 80.8495 32.8815 82.0406 30.1938 82.1524C27.506 82.2641 24.837 81.294 22.369 79.3082L1.71575 62.7085H0V64.5464H1.51215L21.9783 80.9961C24.4409 82.9769 27.0949 83.999 29.7773 83.9995C32.7556 83.9988 35.6949 82.7384 38.3737 80.3136L63.0521 57.9923C65.2977 55.9617 66.2529 51.0551 65.2266 46.8227Z" fill="#4A555F"/>
<path d="M63.2783 48.4616C62.8735 46.7911 61.9714 45.787 61.0341 45.787C60.7189 45.787 60.3999 45.9009 60.0945 46.1401L38.9656 62.7059C35.9448 65.5096 33.1202 66.4716 30.6658 66.4721C28.7198 66.4721 27.0067 65.8672 25.6126 65.0948C25.2473 64.9233 24.8919 64.6849 24.5517 64.3834L23.2217 63.2048C23.1876 63.1748 23.1534 63.1448 23.1192 63.1143L11.9529 53.2208L11.6415 52.9451L13.054 47.4121L13.3934 47.7131L24.6303 57.6688C25.2068 58.1756 25.7887 58.6608 26.3758 59.1239C26.4116 59.1443 26.4474 59.1652 26.4836 59.1856C26.6482 59.2539 26.8163 59.2885 26.9849 59.2886C27.4195 59.2886 27.8503 59.0572 28.2408 58.5976C28.9365 57.7791 29.3356 56.4323 29.3356 54.9031C29.3356 53.2692 28.8508 51.7836 28.0702 51.026L13.3352 36.7339H0V60.5647H1.95356L2.26545 60.8153L22.8254 77.3398C25.0206 79.1054 27.3863 80.0165 29.7774 80.0171C32.4014 80.0171 35.0217 78.9193 37.4399 76.7318L62.1185 54.4105C63.3151 53.3281 63.8248 50.7155 63.2783 48.4616Z" fill="#E5E5E5"/>
<path d="M76.6616 24.1938L76.7238 1.15803L99.0264 1.36696L98.9642 24.4028L76.6616 24.1938Z" fill="#AED581"/>
<path d="M75.9395 25.3394L99.6809 25.5618L99.7493 0.222362L76.0079 -4.30519e-05L75.9395 25.3394ZM98.3042 2.51246L98.2482 23.2447L77.3845 23.0493L77.4405 2.31702L98.3042 2.51246Z" fill="#558B2F"/>
<path d="M78.1632 1.172C79.3862 1.18346 80.3206 1.53776 80.3153 3.4958C80.31 5.45384 79.3707 6.94241 78.1476 6.93095C76.9246 6.9195 76.7128 5.42015 76.7181 3.4621C76.7234 1.50406 76.9401 1.16054 78.1632 1.172ZM76.6683 21.8908C76.6736 19.9327 76.8935 18.4374 78.1165 18.4489C79.3396 18.4603 80.2708 19.9664 80.2655 21.9245C80.2602 23.8825 79.324 24.2193 78.101 24.2078C76.8779 24.1964 76.663 23.8488 76.6683 21.8908Z" fill="#558B2F"/>
<path d="M83.1677 12.737C83.1711 11.4648 82.5297 10.4274 81.735 10.42C80.9403 10.4125 80.2933 11.4379 80.2899 12.7101C80.2865 13.9823 80.9279 15.0197 81.7226 15.0272C82.5172 15.0346 83.1642 14.0093 83.1677 12.737Z" fill="#558B2F"/>
<path d="M94.6788 12.8449C94.6891 9.02824 92.7648 5.91609 90.3808 5.89375C87.9968 5.87142 86.0558 8.94736 86.0455 12.7641C86.0352 16.5808 87.9595 19.6929 90.3435 19.7152C92.7275 19.7376 94.6685 16.6616 94.6788 12.8449Z" fill="#558B2F"/>
<path d="M106.267 2.26709L96.9275 11.2074L92.973 15.3628C91.6987 15.3628 91.1036 20.7948 91.8577 21.3439C91.8577 23.0434 92.0073 23.6341 92.4428 24.201C92.9332 24.8386 93.8368 27.805 94.4649 26.003C94.8808 26.0035 94.6955 28.8177 95.9135 26.003C95.9135 28.9436 100.648 22.6404 100.882 22.4143C101.956 21.378 104.758 18.5609 104.994 18.3334L107.25 16.9217L106.544 13.9059L107.957 19.9374L107.956 19.938L107.944 19.9498L97.6233 28.5153C97.5243 28.6071 96.7768 29.7089 96.6758 29.7915C95.3653 31.0306 94.9112 31.1664 94.4649 32.8452L94.3716 32.932V31.7775C92.9256 32.7062 91.0359 32.9946 88.948 32.9946C86.492 32.9946 79.2858 29.0587 76.2627 26.003L59.4701 12.5199C59.1723 12.2657 58.8526 12.1349 58.5295 12.1351C57.5914 12.1351 56.6889 13.2287 56.2839 15.05C55.7373 17.5059 56.2472 20.3544 57.4448 21.5342L82.2273 45.9493C84.5881 48.2769 87.1786 49.4865 89.8034 49.487C92.1397 49.487 94.4779 48.529 96.6758 46.6048L117.339 28.5153L117.652 28.2421H119.606L119.606 2.26709H106.267Z" fill="#E5E5E5"/>
<path d="M93.5915 14.7561L106.385 2.17777H120V0.339844H106.14L93.1336 13.1283C91.6433 14.5736 90.7176 17.4126 90.7176 20.5376C90.7176 23.1197 91.4239 25.4445 92.6557 26.9155C93.2293 27.6005 93.8725 28.0561 94.5428 28.2772L94.011 28.7335C91.2337 30.3596 86.8945 31.3136 81.913 26.6631L60.735 10.0583C58.4222 8.24433 55.8039 10.1573 54.7729 14.4111C53.7474 18.6438 54.7026 23.5501 56.9477 25.581L81.7131 47.9806C84.3631 50.3799 87.271 51.6268 90.2174 51.6272C92.8399 51.6272 95.4653 50.6393 97.9323 48.6563L118.488 32.1349H120V30.2969H118.284L97.541 46.9685C95.101 48.9318 92.4623 49.8909 89.805 49.7803C87.1478 49.6697 84.5347 48.4921 82.1441 46.3278L57.3787 23.9282C55.6174 22.3348 54.868 18.4867 55.6723 15.1677C56.4813 11.8288 58.5376 10.3303 60.3521 11.7522L81.5005 28.3313C86.764 33.2482 91.3869 32.2076 94.3376 30.4687L94.3951 30.4274C94.4189 30.407 96.229 28.8556 97.5594 27.7015C97.6533 27.6323 97.7462 27.5584 97.8379 27.4801L107.864 18.597L107.441 16.9371C107.441 16.9371 99.2426 24.1875 98.1537 25.1523C97.9084 25.3699 97.5589 25.6749 97.1652 26.0167C95.8381 26.9764 94.3381 26.7415 93.1883 25.3684C92.2315 24.2253 91.7044 22.51 91.7044 20.5379C91.7042 18.1003 92.4265 15.8862 93.5915 14.7561V14.7561Z" fill="#4A555F"/>
</svg>
