<svg width="576" height="456" viewBox="0 0 108 108" fill="none" xmlns="http://www.w3.org/2000/svg">
<path d="M52.0312 107.812C80.7673 107.812 104.062 83.6778 104.062 53.9062C104.062 24.1347 80.7673 0 52.0312 0C23.2952 0 0 24.1347 0 53.9062C0 83.6778 23.2952 107.812 52.0312 107.812Z" fill="#EDA454"/>
<path d="M70.0688 67.9219V80.1406H33.9938V22.6406H70.0688V40.25H74.5781V22.6406C74.5781 17.6094 70.5891 13.6562 65.5594 13.6562H38.5031C33.4734 13.6562 29.4844 17.6094 29.4844 22.6406V85.5312C29.4844 90.5625 33.4734 94.5156 38.5031 94.5156H65.5594C70.5891 94.5156 74.5781 90.5625 74.5781 85.5312V67.9219H70.0688ZM52.0312 89.8438C50.4703 89.8438 49.2562 88.5859 49.2562 87.1484C49.2562 85.7109 50.4703 84.4531 52.0312 84.4531C53.5922 84.4531 54.8062 85.7109 54.8062 87.1484C54.8062 88.5859 53.5922 89.8438 52.0312 89.8438Z" fill="white"/>
<path d="M51.9453 44.9375H55.4492V56.2109C55.4492 57.5234 55.168 58.6289 54.6055 59.5273C54.0508 60.4258 53.2812 61.1016 52.2969 61.5547C51.3203 62.0078 50.1953 62.2344 48.9219 62.2344C47.6484 62.2344 46.5156 62.0078 45.5234 61.5547C44.5391 61.1016 43.7656 60.4258 43.2031 59.5273C42.6484 58.6289 42.3711 57.5234 42.3711 56.2109V44.9375H45.8867V56.2109C45.8867 56.9766 46.0078 57.6016 46.25 58.0859C46.4922 58.5703 46.8398 58.9258 47.293 59.1523C47.7539 59.3789 48.2969 59.4922 48.9219 59.4922C49.5625 59.4922 50.1055 59.3789 50.5508 59.1523C51.0039 58.9258 51.3477 58.5703 51.582 58.0859C51.8242 57.6016 51.9453 56.9766 51.9453 56.2109V44.9375ZM67.2266 57.5352C67.2266 57.2305 67.1797 56.957 67.0859 56.7148C67 56.4648 66.8359 56.2383 66.5938 56.0352C66.3516 55.8242 66.0117 55.6172 65.5742 55.4141C65.1367 55.2109 64.5703 55 63.875 54.7812C63.1016 54.5312 62.3672 54.25 61.6719 53.9375C60.9844 53.625 60.375 53.2617 59.8438 52.8477C59.3203 52.4258 58.9062 51.9375 58.6016 51.3828C58.3047 50.8281 58.1562 50.1836 58.1562 49.4492C58.1562 48.7383 58.3125 48.0938 58.625 47.5156C58.9375 46.9297 59.375 46.4297 59.9375 46.0156C60.5 45.5938 61.1641 45.2695 61.9297 45.043C62.7031 44.8164 63.5508 44.7031 64.4727 44.7031C65.7305 44.7031 66.8281 44.9297 67.7656 45.3828C68.7031 45.8359 69.4297 46.457 69.9453 47.2461C70.4688 48.0352 70.7305 48.9375 70.7305 49.9531H67.2383C67.2383 49.4531 67.1328 49.0156 66.9219 48.6406C66.7188 48.2578 66.4062 47.957 65.9844 47.7383C65.5703 47.5195 65.0469 47.4102 64.4141 47.4102C63.8047 47.4102 63.2969 47.5039 62.8906 47.6914C62.4844 47.8711 62.1797 48.1172 61.9766 48.4297C61.7734 48.7344 61.6719 49.0781 61.6719 49.4609C61.6719 49.75 61.7422 50.0117 61.8828 50.2461C62.0312 50.4805 62.25 50.6992 62.5391 50.9023C62.8281 51.1055 63.1836 51.2969 63.6055 51.4766C64.0273 51.6562 64.5156 51.832 65.0703 52.0039C66 52.2852 66.8164 52.6016 67.5195 52.9531C68.2305 53.3047 68.8242 53.6992 69.3008 54.1367C69.7773 54.5742 70.1367 55.0703 70.3789 55.625C70.6211 56.1797 70.7422 56.8086 70.7422 57.5117C70.7422 58.2539 70.5977 58.918 70.3086 59.5039C70.0195 60.0898 69.6016 60.5859 69.0547 60.9922C68.5078 61.3984 67.8555 61.707 67.0977 61.918C66.3398 62.1289 65.4922 62.2344 64.5547 62.2344C63.7109 62.2344 62.8789 62.125 62.0586 61.9062C61.2383 61.6797 60.4922 61.3398 59.8203 60.8867C59.1562 60.4336 58.625 59.8555 58.2266 59.1523C57.8281 58.4492 57.6289 57.6172 57.6289 56.6562H61.1562C61.1562 57.1875 61.2383 57.6367 61.4023 58.0039C61.5664 58.3711 61.7969 58.668 62.0938 58.8945C62.3984 59.1211 62.7578 59.2852 63.1719 59.3867C63.5938 59.4883 64.0547 59.5391 64.5547 59.5391C65.1641 59.5391 65.6641 59.4531 66.0547 59.2812C66.4531 59.1094 66.7461 58.8711 66.9336 58.5664C67.1289 58.2617 67.2266 57.918 67.2266 57.5352ZM82.0156 57.5352C82.0156 57.2305 81.9688 56.957 81.875 56.7148C81.7891 56.4648 81.625 56.2383 81.3828 56.0352C81.1406 55.8242 80.8008 55.6172 80.3633 55.4141C79.9258 55.2109 79.3594 55 78.6641 54.7812C77.8906 54.5312 77.1562 54.25 76.4609 53.9375C75.7734 53.625 75.1641 53.2617 74.6328 52.8477C74.1094 52.4258 73.6953 51.9375 73.3906 51.3828C73.0938 50.8281 72.9453 50.1836 72.9453 49.4492C72.9453 48.7383 73.1016 48.0938 73.4141 47.5156C73.7266 46.9297 74.1641 46.4297 74.7266 46.0156C75.2891 45.5938 75.9531 45.2695 76.7188 45.043C77.4922 44.8164 78.3398 44.7031 79.2617 44.7031C80.5195 44.7031 81.6172 44.9297 82.5547 45.3828C83.4922 45.8359 84.2188 46.457 84.7344 47.2461C85.2578 48.0352 85.5195 48.9375 85.5195 49.9531H82.0273C82.0273 49.4531 81.9219 49.0156 81.7109 48.6406C81.5078 48.2578 81.1953 47.957 80.7734 47.7383C80.3594 47.5195 79.8359 47.4102 79.2031 47.4102C78.5938 47.4102 78.0859 47.5039 77.6797 47.6914C77.2734 47.8711 76.9688 48.1172 76.7656 48.4297C76.5625 48.7344 76.4609 49.0781 76.4609 49.4609C76.4609 49.75 76.5312 50.0117 76.6719 50.2461C76.8203 50.4805 77.0391 50.6992 77.3281 50.9023C77.6172 51.1055 77.9727 51.2969 78.3945 51.4766C78.8164 51.6562 79.3047 51.832 79.8594 52.0039C80.7891 52.2852 81.6055 52.6016 82.3086 52.9531C83.0195 53.3047 83.6133 53.6992 84.0898 54.1367C84.5664 54.5742 84.9258 55.0703 85.168 55.625C85.4102 56.1797 85.5312 56.8086 85.5312 57.5117C85.5312 58.2539 85.3867 58.918 85.0977 59.5039C84.8086 60.0898 84.3906 60.5859 83.8438 60.9922C83.2969 61.3984 82.6445 61.707 81.8867 61.918C81.1289 62.1289 80.2812 62.2344 79.3438 62.2344C78.5 62.2344 77.668 62.125 76.8477 61.9062C76.0273 61.6797 75.2812 61.3398 74.6094 60.8867C73.9453 60.4336 73.4141 59.8555 73.0156 59.1523C72.6172 58.4492 72.418 57.6172 72.418 56.6562H75.9453C75.9453 57.1875 76.0273 57.6367 76.1914 58.0039C76.3555 58.3711 76.5859 58.668 76.8828 58.8945C77.1875 59.1211 77.5469 59.2852 77.9609 59.3867C78.3828 59.4883 78.8438 59.5391 79.3438 59.5391C79.9531 59.5391 80.4531 59.4531 80.8438 59.2812C81.2422 59.1094 81.5352 58.8711 81.7227 58.5664C81.918 58.2617 82.0156 57.918 82.0156 57.5352ZM93.1602 62H89.4453L89.4688 59.2578H93.1602C94.082 59.2578 94.8594 59.0508 95.4922 58.6367C96.125 58.2148 96.6016 57.6016 96.9219 56.7969C97.25 55.9922 97.4141 55.0195 97.4141 53.8789V53.0469C97.4141 52.1719 97.3203 51.4023 97.1328 50.7383C96.9531 50.0742 96.6836 49.5156 96.3242 49.0625C95.9648 48.6094 95.5234 48.2695 95 48.043C94.4766 47.8086 93.875 47.6914 93.1953 47.6914H89.375V44.9375H93.1953C94.3359 44.9375 95.3789 45.1328 96.3242 45.5234C97.2773 45.9062 98.1016 46.457 98.7969 47.1758C99.4922 47.8945 100.027 48.7539 100.402 49.7539C100.785 50.7461 100.977 51.8516 100.977 53.0703V53.8789C100.977 55.0898 100.785 56.1953 100.402 57.1953C100.027 58.1953 99.4922 59.0547 98.7969 59.7734C98.1094 60.4844 97.2852 61.0352 96.3242 61.4258C95.3711 61.8086 94.3164 62 93.1602 62ZM91.4375 44.9375V62H87.9219V44.9375H91.4375Z" fill="white"/>
</svg>
