<svg width="576" height="456" viewBox="0 0 1636 957" fill="none" xmlns="http://www.w3.org/2000/svg">
<path d="M1548.75 0H87.2533C39.0646 0 0 36.3876 0 81.2739V875.726C0 920.612 39.0646 957 87.2533 957H1548.75C1596.94 957 1636 920.612 1636 875.726V81.2739C1636 36.3876 1596.94 0 1548.75 0Z" fill="#00425F"/>
<path d="M340.863 672.06C479.723 672.06 592.291 567.207 592.291 437.863C592.291 308.519 479.723 203.665 340.863 203.665C202.003 203.665 89.4346 308.519 89.4346 437.863C89.4346 567.207 202.003 672.06 340.863 672.06Z" fill="#EE312A"/>
<path d="M340.862 538.181C284.628 419.438 243.39 308.517 243.39 308.517H157.173C157.173 308.517 209.649 450.891 307.122 628.94H374.603C472.076 450.891 524.552 308.517 524.552 308.517H438.335C438.335 308.517 397.097 419.438 340.862 538.181Z" fill="white"/>
<path d="M1544.48 523.415H1375.8C1375.8 523.415 1379.55 575.799 1454.52 575.799C1492 575.799 1529.49 565.314 1529.49 565.314L1536.99 621.178C1536.99 621.178 1499.5 635.145 1447.02 635.145C1372.06 635.145 1304.58 600.228 1304.58 502.466C1304.58 425.651 1357.06 376.77 1432.03 376.77C1544.48 376.77 1551.98 481.516 1544.48 523.415ZM1428.28 425.651C1379.55 425.651 1375.8 474.532 1375.8 474.532H1480.76C1480.76 474.532 1477.01 425.651 1428.28 425.651Z" fill="white"/>
<path d="M964.877 440.399L976.122 384.534C976.122 384.534 889.278 359.987 818.688 405.483V628.939H893.661L893.655 447.382C923.64 426.433 964.877 440.399 964.877 440.399Z" fill="white"/>
<path d="M760.012 523.415H591.332C591.332 523.415 595.08 575.799 670.049 575.799C707.533 575.799 745.016 565.314 745.016 565.314L752.514 621.178C752.514 621.178 715.031 635.145 662.552 635.145C587.582 635.145 520.11 600.228 520.11 502.466C520.11 425.651 572.589 376.77 647.559 376.77C760.012 376.77 767.507 481.516 760.012 523.415ZM643.808 425.651C595.08 425.651 591.332 474.532 591.332 474.532H696.287C696.287 474.532 692.54 425.651 643.808 425.651Z" fill="white"/>
<path d="M1146.95 545.192C1123.65 492.401 1104.85 437.981 1090.73 382.438L1015.76 382.448C1015.76 382.448 1053.25 517.25 1116.97 628.95H1176.93C1240.66 517.25 1278.14 382.473 1278.14 382.473H1203.18C1189.05 438.004 1170.25 492.412 1146.95 545.192Z" fill="white"/>
</svg>
