<svg width="576" height="456" viewBox="0 0 2104 683" fill="none" xmlns="http://www.w3.org/2000/svg">
<path d="M912.091 671.196H740.411L847.709 11.7828H1019.41L912.091 671.196ZM595.984 11.7828L432.312 465.332L412.945 367.666L412.962 367.701L355.195 71.1554C355.195 71.1554 348.21 11.7828 273.756 11.7828H3.17501L0 22.9482C0 22.9482 82.7442 40.1638 179.582 98.3193L328.737 671.214H507.613L780.752 11.7828H595.984V11.7828ZM1946.33 671.196H2103.97L1966.53 11.7652H1828.52C1764.79 11.7652 1749.27 60.9072 1749.27 60.9072L1493.22 671.196H1672.19L1707.98 573.247H1926.22L1946.33 671.196ZM1757.42 437.939L1847.62 191.171L1898.37 437.939H1757.42ZM1506.65 170.357L1531.15 28.7514C1531.15 28.7514 1455.55 0 1376.74 0C1291.54 0 1089.22 37.2358 1089.22 218.299C1089.22 388.656 1326.68 390.773 1326.68 480.255C1326.68 569.737 1113.69 553.703 1043.4 497.276L1017.87 645.338C1017.87 645.338 1094.53 682.573 1211.65 682.573C1328.81 682.573 1505.55 621.913 1505.55 456.813C1505.55 285.362 1265.96 269.399 1265.96 194.857C1265.98 120.297 1433.18 129.875 1506.65 170.357V170.357Z" fill="#2566AF"/>
<path d="M412.962 367.683L355.195 71.1377C355.195 71.1377 348.21 11.7651 273.756 11.7651H3.17501L0 22.9306C0 22.9306 130.052 49.8828 254.794 150.866C374.069 247.386 412.962 367.683 412.962 367.683Z" fill="#E6A540"/>
</svg>
